<svg width="105" height="97" viewBox="0 0 105 97" fill="none" xmlns="http://www.w3.org/2000/svg">
<path d="M69.8884 16.7339C62.0327 13.0437 53.0614 11.9506 44.4495 13.6342C35.8376 15.3179 28.0975 19.678 22.5017 25.998C16.9059 32.3179 13.7874 40.2215 13.6589 48.4095C13.5304 56.5974 16.3994 64.5824 21.7945 71.0518C22.1474 71.4601 22.6586 71.7229 23.2179 71.7836C23.7772 71.8442 24.3398 71.6979 24.7841 71.3761C25.2285 71.0543 25.5191 70.5828 25.5933 70.0633C25.6674 69.5439 25.5192 69.0182 25.1805 68.5996C20.3847 62.8457 17.835 55.7448 17.9506 48.4639C18.0661 41.1829 20.84 34.1552 25.8163 28.5356C30.7927 22.916 37.6754 19.039 45.3333 17.5416C52.9912 16.0443 60.9687 17.0158 67.9547 20.2964C68.2071 20.4246 68.4846 20.5044 68.7707 20.5308C69.0569 20.5573 69.3458 20.53 69.6204 20.4505C69.895 20.371 70.1496 20.2409 70.3691 20.0681C70.5886 19.8952 70.7685 19.6831 70.8981 19.4442C71.0278 19.2054 71.1045 18.9447 71.1238 18.6777C71.143 18.4107 71.1044 18.1429 71.0102 17.89C70.916 17.6372 70.7682 17.4046 70.5755 17.206C70.3828 17.0074 70.1491 16.8468 69.8884 16.7339Z" fill="black"/>
<path d="M87.0183 32.6779C86.7574 32.2124 86.3101 31.8613 85.773 31.7005C85.236 31.5397 84.6525 31.5821 84.1488 31.8187C83.6452 32.0553 83.262 32.467 83.0821 32.9646C82.9023 33.4622 82.9403 34.0057 83.1879 34.4774C86.7125 40.9783 87.7557 48.4015 86.1459 55.5272C84.5361 62.6529 80.3692 69.057 74.3299 73.6869C68.2906 78.3168 60.7384 80.8971 52.9144 81.0037C45.0905 81.1103 37.4603 78.7369 31.2779 74.2735C31.0561 74.1074 30.801 73.9841 30.5275 73.9108C30.254 73.8374 29.9675 73.8154 29.6847 73.8461C29.402 73.8767 29.1286 73.9595 28.8806 74.0894C28.6325 74.2194 28.4148 74.394 28.2399 74.603C28.0651 74.8121 27.9367 75.0514 27.8623 75.3071C27.7878 75.5627 27.7688 75.8296 27.8063 76.0922C27.8437 76.3548 27.937 76.6078 28.0806 76.8365C28.2242 77.0652 28.4153 77.2651 28.6427 77.4244C35.5942 82.4443 44.1742 85.1141 52.9724 84.995C61.7706 84.8759 70.2635 81.9749 77.0551 76.7689C83.8467 71.563 88.533 64.3617 90.3437 56.3489C92.1543 48.336 90.9816 39.9884 87.0183 32.6779Z" fill="black"/>
<path d="M81.4763 25.0746C80.9456 24.5156 80.386 23.9624 79.8162 23.4321C79.2463 22.9018 78.6518 22.3831 78.0511 21.8873C77.622 21.5557 77.071 21.3928 76.5149 21.4328C75.9589 21.4729 75.4414 21.7129 75.0722 22.102C74.7031 22.4911 74.5113 22.9986 74.5374 23.5171C74.5635 24.0355 74.8056 24.5241 75.2123 24.8793C75.7471 25.3196 76.2779 25.7828 76.7839 26.2557C77.29 26.7285 77.7899 27.2128 78.263 27.7182C78.6427 28.1046 79.1704 28.3368 79.7323 28.3646C80.2942 28.3925 80.8454 28.2138 81.2671 27.8671C81.6888 27.5204 81.9472 27.0334 81.9868 26.511C82.0263 25.9887 81.8436 25.4728 81.4783 25.0746H81.4763Z" fill="black"/>
<path d="M103.045 52.5121C103.748 51.4464 104.119 50.2207 104.119 48.9706C104.119 47.7206 103.748 46.4949 103.045 45.4292L100.223 41.1221C99.8488 40.555 99.703 39.8827 99.8116 39.225L100.653 34.2479C100.866 33.0107 100.706 31.7428 100.191 30.5852C99.6751 29.4277 98.8247 28.4259 97.7339 27.6914L93.3604 24.73C92.7815 24.3381 92.371 23.7675 92.2022 23.1201L90.9289 18.2215C90.616 17.0053 89.9474 15.8936 88.9972 15.0093C88.0469 14.1251 86.8522 13.5029 85.5453 13.2118L80.2811 12.0268C79.5853 11.8699 78.9721 11.4879 78.551 10.9491L75.3789 6.88505C74.5898 5.8703 73.5136 5.07914 72.2701 4.59958C71.0266 4.12002 69.6645 3.97086 68.3353 4.16868L62.9867 4.95163C62.2799 5.05264 61.5575 4.91697 60.9481 4.56877L56.3174 1.95003C55.1722 1.29656 53.8551 0.950684 52.5117 0.950684C51.1684 0.950684 49.8512 1.29656 48.706 1.95003L44.0774 4.57643C43.468 4.92463 42.7456 5.0603 42.0388 4.95928L36.6902 4.17634C35.3625 3.97843 34.0017 4.12679 32.7591 4.60494C31.5164 5.0831 30.4405 5.87234 29.6507 6.88505L26.4703 10.9567C26.0492 11.4955 25.436 11.8774 24.7403 12.0345L19.4761 13.2194C18.1692 13.5106 16.9744 14.1327 16.0242 15.017C15.074 15.9012 14.4054 17.013 14.0925 18.2291L12.8192 23.1278C12.6505 23.7753 12.24 24.3459 11.661 24.7377L7.2875 27.6972C6.19488 28.4317 5.34299 29.4342 4.82683 30.5929C4.31068 31.7516 4.15054 33.0209 4.36429 34.2593L5.20567 39.2365C5.31422 39.8942 5.16843 40.5665 4.79424 41.1335L1.97184 45.4407C1.26961 46.5064 0.897919 47.732 0.897919 48.9821C0.897919 50.2322 1.26961 51.4579 1.97184 52.5235L4.79424 56.8307C5.16843 57.3978 5.31422 58.07 5.20567 58.7277L4.36429 63.7049C4.15455 64.9403 4.31667 66.2057 4.83266 67.3607C5.34864 68.5156 6.19834 69.515 7.2875 70.2479L11.661 73.2093C12.2399 73.6012 12.6504 74.1718 12.8192 74.8192L14.0925 79.7179C14.4054 80.934 15.074 82.0458 16.0242 82.93C16.9744 83.8143 18.1692 84.4364 19.4761 84.7276L21.6752 85.2234C28.6345 86.4906 28.2148 95.1777 35.2235 93.7917C42.2322 92.4058 43.1785 92.1588 46.7867 94.9077L48.7122 96.0008C49.8574 96.6543 51.1745 97.0001 52.5179 97.0001C53.8612 97.0001 55.1784 96.6543 56.3236 96.0008L58.319 94.8695C61.4047 92.0248 69.9748 93.7802 69.9748 93.7802C69.9748 93.7802 70.9478 94.0463 73.223 92.9973C72.9453 93.1332 73.6057 92.4345 73.8402 92.3101C76.4281 90.9988 76.7202 86.6553 83.4347 85.2061L85.5494 84.7295C86.8563 84.4383 88.0511 83.8162 89.0013 82.9319C89.9515 82.0477 90.6201 80.9359 90.933 79.7198L92.2063 74.8211C92.375 74.1737 92.7855 73.603 93.3645 73.2112L97.7401 70.2498C98.8306 69.5155 99.6807 68.514 100.196 67.3569C100.711 66.1997 100.872 64.9322 100.659 63.6953L99.8178 58.7182C99.7092 58.0604 99.855 57.3882 100.229 56.8211L103.045 52.5121ZM99.3817 50.4331L96.5675 54.7422C95.6675 56.1177 95.3206 57.7455 95.5883 59.3365L96.4297 64.3136C96.5176 64.8244 96.4515 65.3479 96.2387 65.8258C96.0258 66.3037 95.6746 66.7173 95.2242 67.0204L90.8486 69.9818C89.447 70.9314 88.4533 72.3133 88.0448 73.8812L86.7714 78.7799C86.6421 79.2817 86.3661 79.7404 85.974 80.1053C85.5818 80.4702 85.0889 80.727 84.5497 80.8473L79.2854 82.0323C77.6005 82.4124 76.1154 83.3371 75.095 84.6414L71.9126 88.7112C71.5867 89.1307 71.1419 89.4577 70.628 89.6558C70.114 89.8538 69.551 89.9152 69.0018 89.833L63.6532 89.05C61.943 88.8019 60.1936 89.1261 58.7161 89.9651L54.0875 92.5915C53.6148 92.8611 53.0713 93.0037 52.5169 93.0037C51.9625 93.0037 51.4189 92.8611 50.9462 92.5915L46.3136 89.9651C44.8355 89.1273 43.0861 88.8044 41.3764 89.0539L36.0278 89.8368C35.4789 89.9186 34.9164 89.8571 34.4028 89.6591C33.8892 89.461 33.4448 89.1342 33.119 88.715L29.9366 84.6395C28.9162 83.3352 27.4312 82.4105 25.7462 82.0303L20.482 80.8454C19.9428 80.7251 19.4498 80.4682 19.0577 80.1034C18.6656 79.7385 18.3896 79.2798 18.2603 78.778L16.9849 73.8851C16.5765 72.3171 15.5828 70.9351 14.181 69.9857L9.80749 67.0243C9.35704 66.7211 9.00585 66.3075 8.79302 65.8296C8.58018 65.3517 8.51406 64.8283 8.60201 64.3175L9.44337 59.3403C9.71125 57.7493 9.3643 56.1215 8.46418 54.746L5.64178 50.4331C5.35206 49.9933 5.19873 49.4875 5.19873 48.9716C5.19873 48.4557 5.35206 47.9499 5.64178 47.51L8.46418 43.2029C9.3643 41.8274 9.71125 40.1996 9.44337 38.6086L8.60201 33.6315C8.51406 33.1207 8.58018 32.5972 8.79302 32.1193C9.00585 31.6414 9.35704 31.2278 9.80749 30.9247L14.183 27.9633C15.5847 27.0137 16.5784 25.6318 16.9869 24.0639L18.2603 19.1652C18.3896 18.6634 18.6656 18.2047 19.0577 17.8398C19.4498 17.4749 19.9428 17.2181 20.482 17.0978L25.7462 15.9128C27.4312 15.5328 28.9164 14.6081 29.9366 13.3037L33.119 9.23388C33.4448 8.81471 33.8892 8.48791 34.4028 8.28985C34.9164 8.0918 35.4789 8.03027 36.0278 8.11211L41.3764 8.89505C43.0861 9.1445 44.8355 8.82163 46.3136 7.98385L50.9421 5.35363C51.4148 5.08403 51.9584 4.94134 52.5127 4.94134C53.0671 4.94134 53.6107 5.08403 54.0834 5.35363L58.7161 7.98385C60.194 8.82179 61.9435 9.14467 63.6532 8.89505L69.0018 8.11211C69.5507 8.03049 70.1132 8.09212 70.6267 8.29016C71.1402 8.4882 71.5846 8.81488 71.9106 9.23388L75.093 13.3056C76.1144 14.6107 77.6011 15.5354 79.2875 15.9147L84.5517 17.0997C85.091 17.22 85.5839 17.4768 85.976 17.8417C86.3681 18.2066 86.6441 18.6653 86.7734 19.1671L88.0468 24.0658C88.4552 25.6338 89.4489 27.0158 90.8507 27.9652L95.2242 30.9266C95.6746 31.2297 96.0258 31.6433 96.2387 32.1212C96.4515 32.5991 96.5176 33.1226 96.4297 33.6334L95.5883 38.6105C95.3204 40.2015 95.6674 41.8294 96.5675 43.2048L99.3899 47.5119C99.6782 47.9522 99.83 48.4581 99.8286 48.9736C99.8271 49.4892 99.6724 49.9943 99.3817 50.4331Z" fill="black"/>
<path d="M52.5138 27.7544L45.503 39.5598L30.3748 42.6093L29.2187 44.7437L40.6605 53.5264L37.6612 67.5601L39.2123 69.103L52.5117 62.3647L65.6609 69.103L68.4134 67.5601L64.7291 53.5264L75.4776 43.7272V41.5966L59.5677 40.5342L52.5138 27.7544Z" fill="#FFEBAF"/>
<path d="M77.6151 42.7624C77.3904 42.1048 76.9658 41.5218 76.3927 41.0839C75.8195 40.646 75.1223 40.372 74.3854 40.2949L61.4768 38.8707L56.0315 27.8865C55.7215 27.2606 55.2252 26.7304 54.6014 26.3588C53.9776 25.9872 53.2524 25.7897 52.5117 25.7897C51.7711 25.7897 51.0459 25.9872 50.4221 26.3588C49.7983 26.7304 49.302 27.2606 48.992 27.8865L43.5467 38.8707L30.6381 40.2949C29.9027 40.3759 29.2076 40.6512 28.6351 41.0883C28.0626 41.5254 27.6367 42.106 27.4077 42.7613C27.1787 43.4167 27.1563 44.1193 27.3431 44.7862C27.5299 45.453 27.9181 46.0561 28.4617 46.524L38.0048 54.7363L35.4724 66.6049C35.3622 67.1278 35.3774 67.6669 35.5169 68.1838C35.6565 68.7006 35.9169 69.1824 36.2797 69.5947C36.6424 70.0071 37.0985 70.3398 37.6154 70.5692C38.1323 70.7985 38.6973 70.9189 39.2699 70.9216C39.9352 70.9206 40.5891 70.7604 41.1687 70.4564L52.5117 64.5489L63.8548 70.4564C64.501 70.7935 65.2374 70.9511 65.9769 70.9108C66.7164 70.8704 67.428 70.6336 68.0274 70.2286C68.6267 69.8235 69.0888 69.2671 69.3588 68.6252C69.6289 67.9833 69.6956 67.2829 69.5511 66.6068L67.0187 54.7382L76.5618 46.5259C77.1093 46.0604 77.5001 45.4571 77.6871 44.7893C77.874 44.1214 77.849 43.4174 77.6151 42.7624ZM63.2151 52.5655C62.9456 52.7973 62.7445 53.0896 62.6311 53.4143C62.5176 53.7391 62.4956 54.0855 62.5671 54.4204L65.1591 66.5608L53.5526 60.5155C53.2324 60.3487 52.8716 60.2611 52.5045 60.2611C52.1375 60.2611 51.7767 60.3487 51.4564 60.5155L39.85 66.5608L42.442 54.4204C42.5137 54.0855 42.4918 53.739 42.3783 53.4142C42.2648 53.0894 42.0637 52.7972 41.794 52.5655L32.0288 44.1618L45.2397 42.705C45.6043 42.6645 45.9516 42.5376 46.2483 42.3365C46.5451 42.1354 46.7815 41.8668 46.9348 41.5564L52.5056 30.3158L58.0763 41.5564C58.2297 41.8668 58.466 42.1354 58.7628 42.3365C59.0596 42.5376 59.4069 42.6645 59.7714 42.705L72.9803 44.1618L63.2151 52.5655Z" fill="black"/>
</svg>
