<svg width="97" height="97" viewBox="0 0 97 97" fill="none" xmlns="http://www.w3.org/2000/svg">
<path d="M72.221 13.3028V37.7763C72.2217 40.2919 71.6245 42.7716 70.4785 45.011C69.3326 47.2504 67.6707 49.1853 65.6299 50.6562L49.176 62.5345C48.9491 62.6972 48.6769 62.7848 48.3976 62.7848C48.1184 62.7848 47.8461 62.6972 47.6192 62.5345L46.0149 61.3747L31.1653 50.6562C29.1249 49.1851 27.4633 47.2501 26.3177 45.0108C25.172 42.7714 24.5751 40.2917 24.576 37.7763V13.3028C24.5741 13.1577 24.6153 13.0152 24.6945 12.8935C24.7736 12.7718 24.8871 12.6764 25.0206 12.6193L46.0132 3.41012L48.0936 2.50519C48.2867 2.426 48.5032 2.426 48.6963 2.50519L71.7764 12.6211C71.9096 12.678 72.0229 12.7732 72.1021 12.8945C72.1812 13.0159 72.2226 13.158 72.221 13.3028Z" fill="#FFEBAF"/>
<path d="M34.9186 45.0385C33.6849 44.1372 32.6808 42.9581 31.9876 41.5966C31.2943 40.2351 30.9313 38.7295 30.9281 37.2017V16.5113L48.3976 8.79395L65.8671 16.5113V37.2017C65.8648 38.7297 65.5022 40.2356 64.8089 41.5972C64.1155 42.9588 63.111 44.1378 61.8767 45.0385L48.3976 54.8504L34.9186 45.0385Z" fill="#F2EEFF"/>
<path d="M94.4523 47.5443C94.4536 48.0433 94.345 48.5364 94.1343 48.9887L87.9105 62.675C87.1474 64.3547 86.0872 65.8828 84.781 67.1856L73.2981 78.6651H68.5345L80.0174 67.1821C81.3258 65.8809 82.3883 64.354 83.1539 62.675L89.3795 48.9852C89.5902 48.5329 89.6988 48.0397 89.6975 47.5408C89.6953 47.0676 89.597 46.5998 89.4085 46.1657C89.22 45.7317 88.9453 45.3404 88.601 45.0158C89.2413 44.4007 90.0959 44.0591 90.9837 44.0634C91.9038 44.0699 92.7842 44.4391 93.4336 45.0908C94.083 45.7426 94.4491 46.6242 94.4523 47.5443Z" fill="#E7EAF0"/>
<path d="M73.639 78.672H56.5068C55.5364 78.672 54.7497 79.4587 54.7497 80.4291V92.7959C54.7497 93.7663 55.5364 94.553 56.5068 94.553H73.639C74.6094 94.553 75.3961 93.7663 75.3961 92.7959V80.4291C75.3961 79.4587 74.6094 78.672 73.639 78.672Z" fill="#FFEBAF"/>
<path d="M40.2867 78.672H23.1545C22.1841 78.672 21.3974 79.4587 21.3974 80.4291V92.7959C21.3974 93.7663 22.1841 94.553 23.1545 94.553H40.2867C41.2571 94.553 42.0438 93.7663 42.0438 92.7959V80.4291C42.0438 79.4587 41.2571 78.672 40.2867 78.672Z" fill="#FFEBAF"/>
<path d="M48.3976 64.3777C47.7853 64.3774 47.1888 64.1837 46.6932 63.8242L30.2288 51.9494C27.9905 50.3306 26.1675 48.2047 24.9089 45.7458C23.6502 43.2869 22.9919 40.5649 22.9876 37.8026V12.867C22.9868 12.558 23.0766 12.2555 23.2459 11.9969C23.4151 11.7384 23.6564 11.535 23.94 11.4121L47.7633 0.985229C47.9636 0.897398 48.1798 0.852051 48.3985 0.852051C48.6172 0.852051 48.8335 0.897398 49.0337 0.985229L72.8553 11.4121C73.1388 11.535 73.3802 11.7384 73.5494 11.9969C73.7187 12.2555 73.8085 12.558 73.8077 12.867V37.8009C73.8035 40.5636 73.145 43.2861 71.886 45.7453C70.6271 48.2046 68.8035 50.3306 66.5647 51.9494L50.1003 63.8277C49.6044 64.185 49.0088 64.3774 48.3976 64.3777ZM26.1645 13.9055V37.8026C26.1682 40.062 26.7068 42.2884 27.7364 44.2995C28.7659 46.3106 30.2571 48.0494 32.0878 49.3734L48.3976 61.1375L64.7074 49.3734C66.5382 48.0494 68.0293 46.3106 69.0589 44.2995C70.0884 42.2884 70.6271 40.062 70.6308 37.8026V13.9055L48.3976 4.17444L26.1645 13.9055Z" fill="black"/>
<path d="M48.3976 56.8553C48.0638 56.8558 47.7385 56.7506 47.4681 56.5549L33.9381 46.801C32.5155 45.7712 31.3571 44.419 30.5578 42.8552C29.7585 41.2915 29.3411 39.5606 29.3397 37.8044V17.0244C29.3389 16.7154 29.4287 16.4129 29.5979 16.1543C29.7672 15.8957 30.0085 15.6924 30.292 15.5695L47.7615 7.92065C47.9618 7.83282 48.1781 7.78748 48.3967 7.78748C48.6154 7.78748 48.8317 7.83282 49.0319 7.92065L66.5015 15.5695C66.785 15.6924 67.0263 15.8957 67.1956 16.1543C67.3648 16.4129 67.4546 16.7154 67.4538 17.0244V37.8044C67.4513 39.5609 67.0327 41.2918 66.2321 42.8553C65.4316 44.4188 64.272 45.7703 62.8484 46.7992L49.3184 56.5531C49.0506 56.7477 48.7286 56.8534 48.3976 56.8553ZM35.8042 44.2197L48.3976 53.3041L60.9911 44.2197C62.0068 43.4852 62.8342 42.5207 63.4056 41.4051C63.977 40.2894 64.2762 39.0543 64.2787 37.8009V18.0611L48.3976 11.1099L32.5166 18.0611V37.8044C32.5196 39.0573 32.819 40.2916 33.3904 41.4066C33.9618 42.5216 34.7889 43.4856 35.8042 44.2197Z" fill="black"/>
<path d="M38.8686 80.2588H23.4919C23.2833 80.259 23.0767 80.218 22.884 80.1381C22.6912 80.0582 22.5163 79.941 22.3691 79.7931L10.8844 68.3102C9.44122 66.8731 8.27022 65.1866 7.42808 63.3322L1.21307 49.6423C0.670849 48.4139 0.638834 47.0203 1.12406 45.7683C1.60929 44.5163 2.57202 43.5083 3.80046 42.966C5.0289 42.4238 6.42242 42.3918 7.67446 42.877C8.9265 43.3623 9.93451 44.325 10.4767 45.5534L13.9119 53.5783C15.217 52.7155 16.7645 52.2944 18.3268 52.377C19.8891 52.4595 21.3836 53.0414 22.5905 54.0369C25.2597 56.4919 28.3338 58.4662 31.6767 59.8724C33.7803 60.6169 35.62 61.9607 36.9692 63.7381C39.2736 66.7075 40.5048 70.3696 40.4624 74.1281V78.6721C40.4631 78.8812 40.4223 79.0884 40.3423 79.2817C40.2624 79.475 40.1449 79.6505 39.9967 79.7981C39.8485 79.9457 39.6725 80.0624 39.4788 80.1414C39.2852 80.2205 39.0778 80.2604 38.8686 80.2588ZM24.1473 77.0819H37.2819V74.1281C37.33 71.0889 36.3491 68.1228 34.4986 65.7114C33.527 64.4166 32.1998 63.4324 30.6786 62.8789C26.9466 61.3603 23.5155 59.1878 20.5469 56.4635C19.8258 55.8694 18.9246 55.5375 17.9904 55.5218C17.0562 55.5062 16.1443 55.8078 15.4038 56.3774C15.9763 57.2341 16.6319 58.0322 17.3612 58.7601L24.6165 66.0171C24.914 66.3158 25.0807 66.7205 25.0799 67.1422C25.0791 67.5638 24.9108 67.9678 24.6121 68.2654C24.3133 68.5629 23.9086 68.7296 23.487 68.7288C23.0654 68.728 22.6614 68.5597 22.3638 68.261L15.1086 61.004C13.4067 59.3069 12.0471 57.2983 11.104 55.0877L7.55635 46.8028C7.45621 46.576 7.31239 46.3713 7.1331 46.2002C6.95382 46.029 6.74259 45.8949 6.51146 45.8054C6.28034 45.7159 6.03385 45.6728 5.78607 45.6786C5.53829 45.6843 5.29407 45.7388 5.06736 45.839C4.84065 45.9391 4.63588 46.0829 4.46475 46.2622C4.29362 46.4415 4.15947 46.6527 4.06998 46.8839C3.98048 47.115 3.93738 47.3615 3.94315 47.6093C3.94891 47.857 4.00342 48.1012 4.10357 48.328L10.3274 62.0196C11.0135 63.5251 11.9659 64.8942 13.1388 66.061L24.1473 77.0819Z" fill="black"/>
<path d="M40.4571 96.1416H22.9876C22.145 96.1416 21.337 95.8069 20.7412 95.2111C20.1454 94.6153 19.8107 93.8072 19.8107 92.9647V80.2605C19.8107 79.418 20.1454 78.6099 20.7412 78.0141C21.337 77.4183 22.145 77.0836 22.9876 77.0836H40.4571C41.2997 77.0836 42.1077 77.4183 42.7035 78.0141C43.2993 78.6099 43.634 79.418 43.634 80.2605V92.9664C43.6335 93.8087 43.2986 94.6163 42.7029 95.2117C42.1072 95.8071 41.2994 96.1416 40.4571 96.1416ZM22.9876 80.2605V92.9664H40.4571V80.2605H22.9876Z" fill="black"/>
<path d="M35.6935 88.201H34.1121C33.9035 88.2019 33.6967 88.1617 33.5036 88.0827C33.3106 88.0038 33.1349 87.8875 32.9868 87.7407C32.6876 87.4441 32.5184 87.0408 32.5166 86.6195C32.5147 86.1983 32.6803 85.7935 32.9769 85.4943C33.2734 85.1951 33.6767 85.0259 34.098 85.024H35.6794C36.1007 85.024 36.5047 85.1914 36.8026 85.4893C37.1005 85.7872 37.2679 86.1912 37.2679 86.6125C37.2679 87.0338 37.1005 87.4378 36.8026 87.7357C36.5047 88.0336 36.1007 88.201 35.6794 88.201H35.6935Z" fill="black"/>
<path d="M73.3034 80.2605H57.9196C57.5002 80.2605 57.0979 80.0939 56.8013 79.7973C56.5048 79.5007 56.3382 79.0985 56.3382 78.6791V74.1298C56.2894 70.3686 57.5164 66.7019 59.8191 63.7275C61.1682 61.9501 63.008 60.6063 65.1116 59.8618C68.4563 58.4562 71.5322 56.4818 74.203 54.0264C75.4101 53.0283 76.9053 52.4435 78.4692 52.3578C80.0331 52.2721 81.5832 52.69 82.8921 53.5502L86.3185 45.5534C86.5834 44.9398 86.9671 44.3847 87.4476 43.9202C87.928 43.4556 88.4957 43.0908 89.1179 42.8468C89.7401 42.6027 90.4044 42.4843 91.0726 42.4983C91.7407 42.5123 92.3995 42.6585 93.0109 42.9284C93.6223 43.1983 94.1742 43.5866 94.6348 44.0709C95.0953 44.5552 95.4554 45.1259 95.6943 45.7501C95.9332 46.3742 96.0461 47.0395 96.0266 47.7076C96.007 48.3756 95.8554 49.0331 95.5804 49.6423L89.3566 63.3339C88.5171 65.1876 87.3491 66.8741 85.9091 68.3119L74.4244 79.7913C74.2777 79.9396 74.1032 80.0574 73.9108 80.1379C73.7184 80.2184 73.5119 80.2601 73.3034 80.2605ZM59.5151 77.0783H72.648L83.667 66.0593C84.8399 64.8924 85.7923 63.5233 86.4784 62.0178L92.7022 48.3262C92.8025 48.0995 92.8571 47.8552 92.863 47.6074C92.8689 47.3596 92.8259 47.113 92.7365 46.8818C92.647 46.6506 92.513 46.4393 92.3419 46.2599C92.1708 46.0805 91.966 45.9366 91.7393 45.8363C91.5126 45.7361 91.2684 45.6814 91.0205 45.6756C90.7727 45.6697 90.5262 45.7127 90.295 45.8021C90.0638 45.8915 89.8524 46.0256 89.673 46.1967C89.4936 46.3678 89.3497 46.5725 89.2495 46.7992L85.6825 55.0894C84.7393 57.3001 83.3798 59.3087 81.6779 61.0057L74.4227 68.2627C74.1237 68.56 73.7189 68.7264 73.2973 68.7253C72.8756 68.7241 72.4717 68.5555 72.1744 68.2566C71.8771 67.9576 71.7107 67.5528 71.7119 67.1312C71.713 66.7095 71.8816 66.3056 72.1806 66.0083L79.4358 58.7513C80.17 58.0193 80.8293 57.2158 81.4038 56.3528C80.6608 55.7825 79.7459 55.4818 78.8094 55.5C77.8729 55.5182 76.9704 55.8542 76.2501 56.453C73.2811 59.1776 69.8494 61.3501 66.1167 62.8683C64.6003 63.4271 63.2787 64.4142 62.3124 65.7096C60.4591 68.1205 59.4757 71.0875 59.5221 74.1281L59.5151 77.0783Z" fill="black"/>
<path d="M73.8077 96.1416H56.3382C55.4956 96.1416 54.6875 95.8069 54.0917 95.2111C53.496 94.6153 53.1612 93.8072 53.1612 92.9647V80.2605C53.1612 79.418 53.496 78.6099 54.0917 78.0141C54.6875 77.4183 55.4956 77.0836 56.3382 77.0836H73.8077C74.6502 77.0836 75.4583 77.4183 76.0541 78.0141C76.6499 78.6099 76.9846 79.418 76.9846 80.2605V92.9664C76.9841 93.8087 76.6492 94.6163 76.0535 95.2117C75.4577 95.8071 74.6499 96.1416 73.8077 96.1416ZM56.3382 80.2605V92.9664H73.8077V80.2605H56.3382Z" fill="black"/>
<path d="M62.692 88.201H61.1105C60.9019 88.2019 60.6952 88.1617 60.5021 88.0827C60.3091 88.0038 60.1334 87.8875 59.9853 87.7407C59.6861 87.4441 59.5169 87.0408 59.5151 86.6195C59.5132 86.1983 59.6788 85.7935 59.9753 85.4943C60.2719 85.1951 60.6752 85.0259 61.0965 85.024H62.6779C63.0992 85.024 63.5032 85.1914 63.8011 85.4893C64.099 85.7872 64.2664 86.1912 64.2664 86.6125C64.2664 87.0338 64.099 87.4378 63.8011 87.7357C63.5032 88.0336 63.0992 88.201 62.6779 88.201H62.692Z" fill="black"/>
<path d="M45.2207 42.1446C44.8771 42.1448 44.5428 42.0332 44.2683 41.8265L37.9163 37.0629C37.7494 36.9377 37.6089 36.7809 37.5027 36.6014C37.3964 36.4219 37.3266 36.2232 37.2971 36.0168C37.2677 35.8103 37.2792 35.6 37.331 35.398C37.3828 35.1959 37.4739 35.0061 37.5991 34.8392C37.7243 34.6724 37.8811 34.5319 38.0606 34.4256C38.2401 34.3194 38.4388 34.2496 38.6452 34.2201C38.8517 34.1907 39.062 34.2022 39.264 34.254C39.4661 34.3058 39.6559 34.3969 39.8228 34.5221L44.8359 38.2788L56.6088 20.6125C56.8418 20.263 57.2041 20.0204 57.616 19.938C58.0279 19.8556 58.4557 19.9402 58.8052 20.1732C59.1547 20.4063 59.3973 20.7686 59.4797 21.1805C59.5621 21.5924 59.4775 22.0202 59.2445 22.3697L46.5421 41.4364C46.4226 41.6167 46.2673 41.7705 46.086 41.8884C45.9046 42.0062 45.701 42.0857 45.4878 42.1217C45.3995 42.1363 45.3102 42.144 45.2207 42.1446Z" fill="black"/>
</svg>
