<svg width="90" height="104" viewBox="0 0 90 104" fill="none" xmlns="http://www.w3.org/2000/svg">
<path d="M37.6328 1.89368C32.7073 1.89368 27.9836 4.00081 24.5008 7.75154C21.018 11.5023 19.0613 16.5893 19.0613 21.8937V29.8077C19.6904 29.1773 20.4394 28.7019 21.2562 28.4145C22.073 28.1272 22.9382 28.0348 23.7915 28.1437V27.1437C23.7916 26.9566 23.8274 26.7715 23.8968 26.6C23.9662 26.4285 24.0677 26.2743 24.1949 26.1469C24.322 26.0194 24.4723 25.9216 24.6361 25.8595C24.8 25.7973 24.9739 25.7722 25.1472 25.7857C32.2203 26.2019 39.2319 24.174 45.1598 19.9977C45.4093 19.822 45.7085 19.7469 46.0045 19.7857C46.3005 19.8245 46.5742 19.9747 46.7773 20.2097C51.5001 25.6777 51.4722 25.4657 51.4722 26.1797V28.1377C52.3139 27.9825 53.1775 28.0361 53.9971 28.2943C54.8167 28.5525 55.5709 29.0085 56.2023 29.6277V21.8937C56.2023 16.5897 54.246 11.5029 50.7636 7.75225C47.2811 4.00158 42.5579 1.89421 37.6328 1.89368Z" fill="#FFEBAF"/>
<path d="M47.1673 73.2917L52.9709 60.7677L45.559 57.6757L37.798 67.9917L45.364 73.7777C45.508 73.8878 45.6725 73.963 45.846 73.9982C46.0196 74.0333 46.1982 74.0276 46.3695 73.9814C46.5408 73.9353 46.7008 73.8497 46.8385 73.7306C46.9763 73.6116 47.0884 73.4618 47.1673 73.2917Z" fill="#FFEBAF"/>
<path d="M28.4399 73.2917L22.6363 60.7677L30.0482 57.6757L37.8092 67.9917L30.2432 73.7777C30.0991 73.8878 29.9347 73.963 29.7612 73.9982C29.5876 74.0333 29.409 74.0276 29.2377 73.9814C29.0664 73.9353 28.9064 73.8497 28.7687 73.7306C28.631 73.6116 28.5188 73.4618 28.4399 73.2917Z" fill="#FFEBAF"/>
<path d="M37.8073 67.9996L32.3046 72.1996L34.9046 76.4156H40.7175L43.3175 72.1996L37.8073 67.9996Z" fill="#FFEBAF"/>
<path d="M30.9545 101.512H44.6527L40.71 76.4236H34.8972L30.9545 101.512Z" fill="#FFEBAF"/>
<path d="M70.2628 59.9056C67.6703 59.9056 65.1361 60.7335 62.9806 62.2846C60.825 63.8357 59.1449 66.0403 58.1528 68.6197C57.1607 71.1991 56.9012 74.0373 57.407 76.7756C57.9127 79.5138 59.1611 82.029 60.9942 84.0032C62.8274 85.9773 65.1629 87.3217 67.7056 87.8664C70.2482 88.4111 72.8838 88.1315 75.2789 87.0631C77.674 85.9947 79.7212 84.1854 81.1615 81.8641C82.6018 79.5427 83.3705 76.8135 83.3705 74.0217C83.3666 70.2792 81.9843 66.6911 79.527 64.0448C77.0697 61.3985 73.738 59.9099 70.2628 59.9056Z" fill="#FFEBAF"/>
<path d="M69.4048 78.9177C69.0394 78.9179 68.6886 78.7634 68.4279 78.4877L65.1538 75.0317C64.8886 74.7519 64.7374 74.37 64.7336 73.9702C64.7298 73.5704 64.8736 73.1853 65.1334 72.8997C65.3932 72.614 65.7478 72.4512 66.119 72.4471C66.4903 72.443 66.8479 72.5978 67.1131 72.8776L69.4122 75.3057L74.9001 69.5436C75.0302 69.3995 75.1858 69.285 75.3576 69.2067C75.5295 69.1285 75.7142 69.0881 75.9008 69.088C76.0874 69.0879 76.2722 69.1281 76.4441 69.2062C76.6161 69.2843 76.7717 69.3986 76.9019 69.5426C77.0321 69.6866 77.1342 69.8571 77.2021 70.0443C77.2701 70.2315 77.3025 70.4314 77.2975 70.6323C77.2925 70.8332 77.2502 71.031 77.173 71.214C77.0958 71.397 76.9854 71.5614 76.8482 71.6976L70.3835 78.4836C70.1231 78.7615 69.7714 78.9175 69.4048 78.9177Z" fill="black"/>
<path d="M73.7709 53.4576C73.5887 53.4171 73.4008 53.4162 73.2183 53.455C73.0358 53.4937 72.8623 53.5714 72.708 53.6833C72.5538 53.7953 72.4218 53.9393 72.32 54.1069C72.2181 54.2746 72.1483 54.4624 72.1148 54.6595C72.0813 54.8566 72.0846 55.0588 72.1247 55.2545C72.1648 55.4501 72.2407 55.6352 72.3481 55.7988C72.4555 55.9624 72.5922 56.1012 72.7501 56.2071C72.908 56.3131 73.0839 56.384 73.2676 56.4156C77.0694 57.1681 80.5088 59.3239 82.9942 62.5121C85.4796 65.7003 86.8556 69.7216 86.8855 73.8842C86.9154 78.0469 85.5973 82.0906 83.158 85.3199C80.7187 88.5491 77.3107 90.7619 73.5202 91.5776L73.4255 91.5936C72.4156 91.8042 71.3898 91.914 70.3612 91.9216H70.2609C68.3472 91.9238 66.4477 91.5686 64.6468 90.8716L64.461 90.7956L64.0896 90.6376L63.9039 90.5556C63.7479 90.4863 63.5931 90.4136 63.4396 90.3376L63.2539 90.2476L62.9809 90.1076L62.7952 90.0116L62.6095 89.9116C62.4609 89.8276 62.3136 89.7416 62.1675 89.6536L62.0802 89.5996L61.9056 89.4916L61.8183 89.4376C61.7032 89.3643 61.5887 89.2896 61.4748 89.2136C61.3609 89.1376 61.25 89.063 61.1423 88.9896C58.8384 87.3612 56.9467 85.1413 55.6373 82.5299C54.3279 79.9185 53.642 76.9974 53.6413 74.0296V73.9336V73.8316V73.7276C53.6918 69.825 54.9388 66.0498 57.1885 62.9896C57.2301 62.9326 57.268 62.8724 57.3018 62.8096C59.7973 59.4548 63.3332 57.1823 67.2598 56.4096C67.4435 56.378 67.6194 56.3071 67.7773 56.2011C67.9352 56.0952 68.0719 55.9564 68.1793 55.7928C68.2866 55.6292 68.3626 55.4441 68.4027 55.2485C68.4427 55.0528 68.4461 54.8506 68.4126 54.6535C68.379 54.4564 68.3093 54.2686 68.2074 54.1009C68.1055 53.9333 67.9736 53.7893 67.8193 53.6773C67.6651 53.5654 67.4916 53.4877 67.3091 53.449C67.1265 53.4102 66.9387 53.4111 66.7565 53.4516C62.444 54.2978 58.5259 56.6953 55.6433 60.2516L46.9686 56.6336V51.4316C48.5668 50.1187 49.9044 48.4742 50.9025 46.5952C51.9006 44.7161 52.5389 42.6408 52.7796 40.4916C54.324 40.4279 55.8028 39.8026 56.9749 38.7176C57.6464 38.095 58.1962 37.3348 58.5924 36.4814C58.9887 35.6279 59.2234 34.6981 59.283 33.746C59.3427 32.7939 59.2259 31.8386 58.9397 30.9355C58.6534 30.0325 58.2034 29.1997 57.6156 28.4856V21.8856C57.5148 16.2553 55.3671 10.8922 51.634 6.94883C47.901 3.00542 42.8805 0.796387 37.6513 0.796387C32.4222 0.796387 27.4017 3.00542 23.6686 6.94883C19.9356 10.8922 17.7879 16.2553 17.687 21.8856V28.6516C16.6116 29.9041 16.0118 31.5457 16.0063 33.2516C16.0054 34.2875 16.2123 35.3113 16.613 36.253C17.0137 37.1947 17.5986 38.0321 18.3278 38.7076C19.5 39.792 20.9788 40.4166 22.5231 40.4796C22.9065 44.0023 24.3628 47.2888 26.6645 49.8256C27.278 50.5046 27.9468 51.1231 28.6628 51.6736V56.6336L9.03648 64.8356L9.01048 64.8476C6.48907 66.0631 4.34857 68.0391 2.84769 70.5367C1.34681 73.0343 0.549819 75.9466 0.553049 78.9216V99.6076C0.553049 100.509 0.885674 101.374 1.47775 102.012C2.06983 102.649 2.87286 103.008 3.71019 103.008H71.9398C72.7739 103.005 73.5731 102.647 74.1629 102.012C74.7527 101.377 75.0852 100.516 75.0876 99.6176V94.2756C79.3731 93.0906 83.1543 90.3648 85.805 86.5496C88.4557 82.7344 89.8169 78.0587 89.6633 73.2967C89.5097 68.5347 87.8504 63.972 84.9603 60.3641C82.0701 56.7562 78.1225 54.3196 73.7709 53.4576ZM51.0488 61.5736L46.0196 72.4276L39.8316 67.6936L44.5673 61.3976L46.014 59.4736L51.0488 61.5736ZM37.8148 69.8396L41.4102 72.5896L39.9709 74.9196H35.6568L34.2138 72.5896L37.8148 69.8396ZM37.8148 65.5956L31.4448 57.1276V53.3776C33.3341 54.2422 35.3594 54.7099 37.4118 54.7556H38.9736C39.2807 54.7303 39.5859 54.6956 39.8892 54.6516C41.3712 54.4333 42.8142 53.9762 44.1699 53.2956V57.1836L37.8148 65.5956ZM55.296 30.2276C55.6886 30.632 55.9984 31.1203 56.2055 31.6611C56.4127 32.2019 56.5126 32.7833 56.499 33.3681C56.4854 33.953 56.3584 34.5283 56.1263 35.0572C55.8942 35.5861 55.5621 36.057 55.1512 36.4396C54.5121 37.0279 53.719 37.3878 52.8818 37.4696V29.0696C53.5061 29.1326 54.1088 29.3481 54.6442 29.6996H54.6535L54.7055 29.7356C54.9037 29.8736 55.0901 30.0302 55.2626 30.2036L55.296 30.2276ZM22.4079 37.4696C21.5708 37.3885 20.7778 37.0293 20.1385 36.4416C19.7142 36.0483 19.374 35.5608 19.1409 35.0126C18.9079 34.4645 18.7876 33.8685 18.7883 33.2656C18.795 32.73 18.9038 32.2015 19.108 31.713C19.3121 31.2245 19.6072 30.7863 19.975 30.4256L20.0233 30.3896C20.6891 29.7318 21.5183 29.2967 22.4098 29.1376V37.4696H22.4079ZM23.3755 24.4076L23.2603 24.5156C23.1561 24.6198 23.0598 24.7328 22.9725 24.8536L22.9093 24.9436L22.8518 25.0336L22.8239 25.0796L22.7979 25.1236L22.7738 25.1696L22.7515 25.2116L22.7292 25.2556L22.7088 25.2976L22.6883 25.3416V25.3536L22.6698 25.3976L22.6549 25.4356V25.4496L22.6382 25.4936V25.5056L22.6252 25.5436V25.5556L22.6103 25.5996V25.6136L22.5992 25.6476V25.6616L22.5862 25.7036V25.7196L22.5769 25.7556V25.7676L22.5658 25.8096V25.8256L22.5546 25.8696V25.9256L22.5453 25.9716V26.0216C21.8317 26.1002 21.1327 26.2916 20.4709 26.5896V21.8916C20.4709 16.9851 22.2808 12.2796 25.5024 8.81016C28.724 5.34074 33.0934 3.39164 37.6495 3.39164C42.2055 3.39164 46.575 5.34074 49.7966 8.81016C53.0182 12.2796 54.828 16.9851 54.828 21.8916V26.4596C54.204 26.222 53.5519 26.0806 52.891 26.0396V25.6396C52.891 24.4876 52.735 24.3076 50.1239 21.3096L49.875 21.0236L48.224 19.1236L47.8229 18.6596C47.4103 18.1806 46.8578 17.8681 46.2574 17.7743C45.657 17.6804 45.0448 17.8107 44.5228 18.1436L44.4206 18.2116C42.5152 19.5489 40.484 20.6657 38.3608 21.5436L38.253 21.5876C37.8222 21.7636 37.3889 21.9303 36.953 22.0876C33.2456 23.4414 29.3303 24.0119 25.422 23.7676L25.2846 23.7576C24.594 23.6995 23.9095 23.9325 23.3755 24.4076ZM25.2066 38.9896V38.7496V26.7676C28.7272 26.9992 32.2593 26.6156 35.666 25.6316C39.2052 24.6281 42.5782 23.0392 45.6649 20.9216L45.8506 20.7936L46.2035 21.1936L46.3 21.3056L46.4189 21.4416L46.4449 21.4716L46.521 21.5596L47.8693 23.1096L48.0848 23.3576L48.5806 23.9276L48.6196 23.9716L48.7236 24.0916C49.4052 24.8756 49.8843 25.4356 50.0849 25.7096L50.0979 25.7276V38.9896C50.0351 41.0394 49.5292 43.0451 48.6203 44.8474C47.7115 46.6497 46.4249 48.1988 44.8626 49.3716L44.792 49.4216C42.9829 50.7718 40.8672 51.5674 38.6709 51.7236H38.6598L38.4406 51.7376H37.7201C35.9786 51.73 34.2553 51.357 32.6463 50.6396C30.5107 49.6534 28.6783 48.0356 27.3615 45.9737C26.0448 43.9118 25.2976 41.4902 25.2066 38.9896ZM29.608 59.4756L35.7923 67.6956L29.6099 72.4236L24.5808 61.5696L29.608 59.4756ZM16.2682 100.008V82.1256C16.2822 81.9194 16.2565 81.7124 16.1929 81.5173C16.1292 81.3223 16.0289 81.1434 15.8982 80.992C15.7675 80.8406 15.6092 80.7198 15.4332 80.6372C15.2572 80.5546 15.0673 80.512 14.8753 80.512C14.6834 80.512 14.4934 80.5546 14.3174 80.6372C14.1415 80.7198 13.9832 80.8406 13.8525 80.992C13.7217 81.1434 13.6214 81.3223 13.5578 81.5173C13.4941 81.7124 13.4685 81.9194 13.4825 82.1256V100.008H3.71576C3.61725 100.008 3.52278 99.9655 3.45312 99.8905C3.38347 99.8155 3.34433 99.7137 3.34433 99.6076V78.9196C3.34241 76.5416 3.9755 74.2131 5.16814 72.2117C6.36077 70.2103 8.06265 68.6205 10.0709 67.6316L21.9733 62.6616L27.2086 73.9616C27.3776 74.3259 27.6178 74.6465 27.9127 74.9013C28.2076 75.1562 28.5502 75.3393 28.917 75.4381C29.2838 75.5369 29.6661 75.5491 30.0377 75.4737C30.4093 75.3984 30.7613 75.2373 31.0696 75.0016L31.948 74.3296L33.4468 76.7576L29.7863 100.008H16.2682ZM59.3725 100.008H45.8432L44.5896 92.0356C44.5647 91.8356 44.5027 91.6429 44.4071 91.4692C44.3116 91.2955 44.1846 91.1443 44.0337 91.0246C43.8828 90.9048 43.711 90.819 43.5286 90.7723C43.3463 90.7256 43.157 90.7189 42.9722 90.7526C42.7874 90.7863 42.6108 90.8598 42.4529 90.9685C42.2949 91.0773 42.159 91.2192 42.0531 91.3858C41.9472 91.5524 41.8735 91.7402 41.8364 91.9381C41.7994 92.136 41.7997 92.3399 41.8373 92.5376L43.011 100.01H32.611L36.0821 77.9296H39.5363L40.7305 85.5296C40.7554 85.7297 40.8174 85.9224 40.9129 86.0961C41.0085 86.2698 41.1355 86.421 41.2864 86.5407C41.4373 86.6605 41.6091 86.7462 41.7914 86.793C41.9738 86.8397 42.1631 86.8464 42.3479 86.8127C42.5327 86.779 42.7093 86.7055 42.8672 86.5967C43.0251 86.488 43.1611 86.346 43.267 86.1795C43.3729 86.0129 43.4466 85.8251 43.4837 85.6272C43.5207 85.4293 43.5204 85.2254 43.4828 85.0276L42.1828 76.7676L43.6815 74.3396L44.5599 75.0116C44.8682 75.2473 45.2203 75.4084 45.5918 75.4837C45.9634 75.5591 46.3457 75.5469 46.7126 75.4481C47.0794 75.3493 47.422 75.1662 47.7169 74.9113C48.0117 74.6565 48.2519 74.3359 48.4209 73.9716L53.6562 62.6716L53.8939 62.7716C53.2755 63.8136 52.7441 64.9126 52.306 66.0556V66.0656L52.2893 66.1096C51.3919 68.4602 50.9046 70.9688 50.8519 73.5096V74.0216C50.8512 77.0418 51.4593 80.0262 52.6341 82.7685C53.8089 85.5109 55.5225 87.946 57.6565 89.9056L57.7456 89.9876L57.9313 90.1476L58.117 90.3056L58.3919 90.5396L58.4848 90.6156L58.6705 90.7676L59.0419 91.0636L59.3818 91.3176V100.004L59.3725 100.008ZM72.2945 99.6256C72.2945 99.727 72.2571 99.8241 72.1906 99.8958C72.1241 99.9674 72.0338 100.008 71.9398 100.008H62.1656V93.0216C62.594 93.2336 63.0304 93.4296 63.4749 93.6096L63.6978 93.6976L64.0339 93.8236C64.1837 93.8783 64.3348 93.931 64.487 93.9816C66.354 94.6076 68.2982 94.9252 70.2535 94.9236C70.9321 94.9236 71.6102 94.8856 72.2852 94.8096V99.6196L72.2945 99.6256Z" fill="black"/>
</svg>
