<svg width="88" height="85" viewBox="0 0 88 85" fill="none" xmlns="http://www.w3.org/2000/svg">
<path d="M47.4592 79.6053H36.1585C35.8197 79.6052 35.492 79.4897 35.2337 79.2794C34.9754 79.0691 34.8035 78.7776 34.7486 78.457L33.1486 69.1471C30.8979 68.5331 28.7278 67.674 26.6809 66.5865L18.6254 72.0521C18.3519 72.2381 18.0189 72.3259 17.6847 72.3002C17.3505 72.2746 17.0363 72.137 16.7971 71.9117L8.66321 64.2315C8.41965 64.0021 8.26976 63.6966 8.24067 63.3704C8.21158 63.0442 8.30521 62.7188 8.50461 62.4531L14.2438 54.7879C13.1036 52.8239 12.2003 50.7418 11.5511 48.5819L1.83295 47.0024C1.49974 46.9483 1.19724 46.7829 0.979046 46.5354C0.76085 46.2879 0.64104 45.9743 0.640839 45.6502V34.811C0.641104 34.4871 0.760976 34.1737 0.979198 33.9265C1.19742 33.6793 1.49989 33.5142 1.83295 33.4605L11.5529 31.8793C12.2022 29.7377 13.0965 27.6715 14.2194 25.7184L8.50287 17.9947C8.30748 17.7304 8.21603 17.4083 8.24474 17.0855C8.27346 16.7627 8.42048 16.4601 8.65972 16.2314L16.6507 8.58626C16.8889 8.3581 17.2034 8.21791 17.5389 8.19039C17.8743 8.16287 18.2091 8.24979 18.4842 8.43583L26.5414 13.9031C28.5901 12.8207 30.759 11.9623 33.0074 11.3441L34.6022 2.03426C34.6578 1.71365 34.8302 1.42234 35.0887 1.2121C35.3471 1.00187 35.675 0.886318 36.0139 0.885986H47.3145C47.6534 0.886043 47.9811 1.00153 48.2394 1.21185C48.4976 1.42217 48.6696 1.71364 48.7245 2.03426L50.3227 11.3441C52.5711 11.9623 54.7401 12.8207 56.7887 13.9031L64.8442 8.43583C65.1201 8.24975 65.4556 8.16299 65.7916 8.19081C66.1276 8.21863 66.4426 8.35926 66.6812 8.58793L74.653 16.2498C74.8915 16.4786 75.038 16.781 75.0664 17.1034C75.0947 17.4258 75.0033 17.7475 74.8081 18.0114L69.1107 25.7184C70.244 27.682 71.1387 29.7637 71.7773 31.9227L81.485 33.4521C81.8193 33.5051 82.1233 33.67 82.3428 33.9176C82.5623 34.1651 82.6833 34.4793 82.6841 34.8043V45.6418C82.6837 45.9671 82.5629 46.2817 82.3434 46.5296C82.1238 46.7775 81.8196 46.9427 81.485 46.9957L71.7773 48.525C71.0465 50.9628 70.0026 53.304 68.6698 55.4949C68.4767 55.8052 68.1637 56.0298 67.799 56.1202C67.4342 56.2105 67.0469 56.1593 66.7213 55.9775C66.3957 55.7957 66.158 55.4981 66.0597 55.1493C65.9615 54.8005 66.0107 54.4286 66.1967 54.1143C67.5566 51.8835 68.5844 49.4812 69.2501 46.9773C69.3186 46.7187 69.4642 46.4848 69.6691 46.3043C69.8741 46.1238 70.1294 46.0045 70.4039 45.9611L79.8241 44.4768V35.976L70.4039 34.4901C70.1293 34.4468 69.8739 34.3276 69.6689 34.1471C69.464 33.9665 69.3184 33.7326 69.2501 33.4738C68.5936 30.9696 67.5615 28.5701 66.1862 26.3502C66.0436 26.1222 65.9734 25.8592 65.9842 25.5935C65.9951 25.3278 66.0865 25.0709 66.2472 24.8543L71.7773 17.3746L65.503 11.3575L57.688 16.6609C57.4629 16.813 57.1968 16.8996 56.9217 16.9103C56.6466 16.921 56.3741 16.8553 56.1369 16.7211C53.8166 15.4073 51.3131 14.4168 48.7019 13.7794C48.4322 13.7137 48.1883 13.5741 48.0001 13.3776C47.8119 13.181 47.6875 12.9362 47.6422 12.6729L46.0928 3.64719H37.2269L35.6792 12.6729C35.6339 12.9362 35.5095 13.181 35.3213 13.3776C35.1331 13.5741 34.8893 13.7137 34.6196 13.7794C32.0076 14.4164 29.5036 15.4069 27.1828 16.7211C26.9454 16.8545 26.673 16.9197 26.398 16.909C26.1231 16.8984 25.8571 16.8123 25.6317 16.6609L17.8115 11.3441L11.5372 17.3613L17.0847 24.8543C17.2445 25.0709 17.3355 25.3273 17.3466 25.5925C17.3578 25.8577 17.2886 26.1203 17.1474 26.3485C15.7838 28.5604 14.7507 30.9448 14.0783 33.432C14.0088 33.6871 13.8639 33.9175 13.6611 34.0954C13.4582 34.2734 13.2061 34.3913 12.935 34.4349L3.50784 35.9693V44.4936L12.935 46.0279C13.2063 46.0715 13.4587 46.1893 13.6619 46.3672C13.865 46.5452 14.0102 46.7756 14.08 47.0308C14.7483 49.5379 15.7914 51.939 17.1771 54.1594C17.3206 54.3888 17.3912 54.6533 17.38 54.9206C17.3689 55.1878 17.2765 55.4461 17.1143 55.6637L11.5372 63.0999L17.9457 69.1505L25.7694 63.842C25.9948 63.6892 26.2615 63.6023 26.5374 63.5916C26.8132 63.5809 27.0864 63.647 27.324 63.7818C29.6382 65.1023 32.1404 66.0927 34.752 66.7219C35.0225 66.7873 35.2672 66.927 35.456 67.1238C35.6449 67.3207 35.7697 67.5661 35.8152 67.83L37.3628 76.8558H46.234L47.7659 67.83C47.8109 67.5653 47.9357 67.319 48.125 67.1215C48.3142 66.924 48.5596 66.7839 48.8308 66.7186C51.41 66.1038 53.8819 65.1313 56.1683 63.832C56.4946 63.6469 56.8842 63.5937 57.2514 63.6842C57.6187 63.7746 57.9334 64.0012 58.1264 64.3142C58.3193 64.6272 58.3748 65.0008 58.2805 65.353C58.1862 65.7052 57.9499 66.007 57.6236 66.192C55.372 67.4705 52.9572 68.4638 50.4395 69.1471L48.8605 78.4537C48.8065 78.7735 48.6362 79.0646 48.3796 79.2754C48.1231 79.4862 47.797 79.6031 47.4592 79.6053Z" fill="black"/>
<path d="M73.1786 80.6131C73.8732 81.2793 74.6978 81.8078 75.6054 82.1683C76.513 82.5288 77.4857 82.7144 78.4681 82.7144C79.4505 82.7144 80.4232 82.5288 81.3308 82.1683C82.2384 81.8078 83.0631 81.2793 83.7577 80.6131C85.1601 79.2678 85.9479 77.4434 85.9479 75.5411C85.9479 73.6389 85.1601 71.8145 83.7577 70.4692L64.3074 51.8161C63.003 50.58 62.0055 49.0782 61.3888 47.422C60.7721 45.7658 60.552 43.9977 60.745 42.2488C61.1218 39.0577 60.627 35.8274 59.3091 32.875C57.9912 29.9226 55.8955 27.3495 53.2277 25.4083C50.5599 23.4672 47.4117 22.2245 44.0919 21.8024C40.7722 21.3803 37.395 21.7932 34.2919 23.0006L43.977 32.2888L40.1287 38.7856L33.3699 42.4627L23.6849 33.1746C22.4269 36.1526 21.9977 39.3932 22.4396 42.5782C22.8814 45.7633 24.1791 48.7835 26.2052 51.3425C28.2313 53.9015 30.9164 55.9114 33.9969 57.175C37.0774 58.4387 40.4475 58.9126 43.7765 58.5502C45.5985 58.3668 47.4401 58.579 49.165 59.1709C50.8898 59.7629 52.4536 60.7196 53.7405 61.97L73.1786 80.6131Z" fill="#FFEBAF"/>
<path d="M78.4681 84.093C77.2963 84.0962 76.1356 83.8762 75.0532 83.4458C73.9707 83.0154 72.9882 82.3832 72.1625 81.5859L52.7226 62.9444C51.5908 61.8386 50.2131 60.9923 48.6923 60.4687C47.1716 59.9452 45.5472 59.7579 43.9404 59.9208C40.3625 60.3112 36.7402 59.8025 33.4292 58.4447C30.1183 57.0869 27.2324 54.9267 25.055 52.1762C22.8776 49.4257 21.4834 46.1794 21.0095 42.756C20.5355 39.3326 20.998 35.8499 22.3516 32.6498C22.4411 32.4388 22.5837 32.2523 22.7667 32.1071C22.9497 31.9619 23.1674 31.8624 23.4003 31.8175C23.6331 31.7727 23.874 31.7838 24.1013 31.85C24.3285 31.9162 24.5352 32.0354 24.7027 32.1968L33.6122 40.7495L39.0743 37.7794L42.1853 32.5294L33.2741 23.9767C33.1059 23.8154 32.9821 23.6167 32.9135 23.3983C32.845 23.1798 32.834 22.9485 32.8815 22.725C32.929 22.5015 33.0335 22.2928 33.1856 22.1174C33.3377 21.9421 33.5328 21.8057 33.7534 21.7203C37.0874 20.4232 40.7159 19.9797 44.2826 20.4334C47.8493 20.8871 51.2317 22.2225 54.0979 24.3083C56.964 26.3942 59.2154 29.1589 60.631 32.3311C62.0466 35.5033 62.5778 38.974 62.1724 42.4026C61.9997 43.946 62.1936 45.5068 62.7396 46.9681C63.2857 48.4294 64.1696 49.7531 65.3252 50.8399L84.7755 69.4981C86.0232 70.6941 86.8729 72.2181 87.2173 73.8774C87.5617 75.5366 87.3852 77.2565 86.7102 78.8195C86.0352 80.3826 84.892 81.7185 83.4252 82.6584C81.9584 83.5983 80.2339 84.0999 78.4699 84.0997L78.4681 84.093ZM45.1133 57.0978C46.9094 57.1056 48.6861 57.4538 50.3414 58.1225C51.9966 58.7911 53.4977 59.7669 54.7583 60.9939L74.1964 79.6353C75.3469 80.6881 76.8761 81.2755 78.4664 81.2755C80.0567 81.2755 81.5858 80.6881 82.7364 79.6353C83.8684 78.549 84.5042 77.0761 84.5042 75.5403C84.5042 74.0046 83.8684 72.5316 82.7364 71.4453L63.2861 52.7838C61.8233 51.4049 60.7053 49.726 60.0161 47.8733C59.327 46.0206 59.0846 44.0421 59.3071 42.0867C59.634 39.3147 59.2503 36.5082 58.1895 33.9107C57.1287 31.3132 55.4228 29.0032 53.2199 27.1815C51.017 25.3597 48.3837 24.0812 45.5486 23.4569C42.7136 22.8326 39.7625 22.8813 36.9515 23.599L44.9966 31.3126C45.2191 31.5266 45.3623 31.8047 45.4041 32.1042C45.446 32.4037 45.3843 32.7081 45.2284 32.9707L41.3819 39.4675C41.2537 39.6843 41.0663 39.8634 40.8398 39.9857L34.081 43.6628C33.807 43.8115 33.4897 43.87 33.1778 43.8292C32.8658 43.7884 32.5764 43.6507 32.3539 43.4372L24.3054 35.7202C23.5571 38.4196 23.5072 41.2533 24.1601 43.9753C24.813 46.6973 26.1489 49.2254 28.0519 51.3399C29.9548 53.4544 32.3672 55.0914 35.0796 56.1088C37.792 57.1262 40.7223 57.4932 43.6162 57.178C44.1133 57.1241 44.6131 57.0973 45.1133 57.0978Z" fill="black"/>
<path d="M78.4699 84.0846C77.299 84.0871 76.1392 83.8668 75.0577 83.4365C73.9762 83.0061 72.9945 82.3742 72.1694 81.5775L52.7314 62.9394C51.5988 61.8324 50.22 60.9852 48.698 60.4611C47.1761 59.9369 45.5503 59.7494 43.9421 59.9124C40.3661 60.3024 36.7458 59.7938 33.4366 58.4366C30.1274 57.0794 27.2432 54.9202 25.067 52.171C22.8908 49.4219 21.4976 46.1772 21.0239 42.7557C20.5503 39.3341 21.0127 35.8532 22.3656 32.6548C22.4545 32.4452 22.5961 32.2601 22.7779 32.1158C22.9596 31.9715 23.1757 31.8726 23.407 31.8279C23.6382 31.7832 23.8774 31.7942 24.1032 31.8597C24.329 31.9252 24.5344 32.0433 24.701 32.2035L33.6122 40.7512L39.083 37.776L42.1993 32.5194L33.2828 23.97C33.1155 23.8102 32.9921 23.6131 32.9238 23.3963C32.8554 23.1795 32.8442 22.9498 32.8912 22.7278C32.9382 22.5058 33.0419 22.2985 33.193 22.1244C33.344 21.9504 33.5378 21.8149 33.7569 21.7303C37.0895 20.433 40.7166 19.989 44.2821 20.4421C47.8477 20.8952 51.229 22.2298 54.0943 24.3148C56.9595 26.3997 59.2102 29.1635 60.6252 32.3346C62.0402 35.5057 62.571 38.9753 62.1654 42.4026C61.9929 43.947 62.1872 45.5088 62.7338 46.971C63.2804 48.4331 64.1652 49.7575 65.3218 50.8449L84.7703 69.4998C86.0165 70.6947 86.8652 72.2172 87.2091 73.8748C87.5529 75.5324 87.3765 77.2505 86.702 78.8119C86.0276 80.3733 84.8855 81.7078 83.4202 82.6466C81.9549 83.5855 80.2321 84.0865 78.4699 84.0863V84.0846ZM45.1151 57.1078C46.9098 57.1153 48.6853 57.4631 50.3394 58.1312C51.9935 58.7993 53.4935 59.7744 54.7531 61.0005L74.1929 79.6437C75.3453 80.699 76.8774 81.2879 78.4707 81.2879C80.0641 81.2879 81.5962 80.699 82.7486 79.6437C83.3107 79.1049 83.7565 78.4652 84.0608 77.7611C84.365 77.0571 84.5215 76.3024 84.5215 75.5403C84.5215 74.7782 84.365 74.0235 84.0608 73.3195C83.7565 72.6154 83.3107 71.9757 82.7486 71.4369L63.2983 52.7855C61.8363 51.4062 60.7192 49.7271 60.031 47.8744C59.3428 46.0216 59.1012 44.0434 59.3246 42.0883C59.6518 39.313 59.2672 36.5029 58.2042 33.9026C57.1411 31.3022 55.4319 28.9902 53.2251 27.1675C51.0183 25.3449 48.3806 24.0667 45.5415 23.4442C42.7023 22.8217 39.7476 22.8737 36.9341 23.5956L44.9878 31.321C45.2094 31.5331 45.352 31.8091 45.3939 32.1066C45.4358 32.4041 45.3746 32.7065 45.2196 32.9673L41.3732 39.4625C41.2448 39.6777 41.0581 39.8556 40.8329 39.9773L34.0758 43.6545C33.8037 43.8025 33.4884 43.8609 33.1784 43.8208C32.8683 43.7806 32.5806 43.6441 32.3591 43.4322L24.3019 35.7035C23.5501 38.4047 23.4977 41.2411 24.1491 43.9662C24.8005 46.6913 26.136 49.2226 28.0396 51.34C29.9431 53.4575 32.3572 55.0971 35.0718 56.1162C37.7864 57.1354 40.7196 57.5033 43.6162 57.188C44.1138 57.134 44.6143 57.1073 45.1151 57.1078Z" fill="black"/>
</svg>
