<svg width="62" height="80" viewBox="0 0 62 80" fill="none" xmlns="http://www.w3.org/2000/svg">
<g filter="url(#filter0_d_703_219)">
<g filter="url(#filter1_d_703_219)">
<path d="M18.2104 28.5261L16.8352 27.6368C16.207 27.3409 14.7273 28.2135 14.7273 28.8054V33.9182C14.7724 34.0842 14.5432 34.3065 14.314 34.5288L12.1994 36.474C11.9167 36.6085 10.4444 36.6085 10.1617 36.474L8.12559 34.5288C7.89639 34.3065 7.87891 34.1873 7.87891 33.9182V28.8054C7.87891 28.1866 6.46175 27.314 5.8336 27.6368L4.6876 28.5261C4.2292 28.9707 4.2292 29.1395 4 29.86V34.5288C4 35.1937 4.23196 35.6424 4.9168 36.3074L6.7504 37.6413C7.89639 38.3083 9.27159 39.8645 9.27159 40.8323V47.4235H13.3972L13.3972 44.311V40.7538C13.3972 39.8645 15.0704 38.5164 15.9184 38.086L17.2384 36.954C18.1515 36.1196 18.4396 35.3628 18.4396 34.5288V30.0824C18.4082 29.2484 18.4396 28.7484 18.2104 28.5261Z" fill="#3E3E3E"/>
</g>
<path d="M50.8622 72H16.4984C12.4972 72 9.31195 69.5631 9.31195 65.6438V52.7262V39.9905H13.4891V65.6438C13.4891 67.1986 14.8481 68.479 16.4984 68.479H50.8622C52.5124 68.479 53.8714 67.1986 53.8714 65.6438V6.79214C53.8714 5.23739 52.5124 3.95702 50.8622 3.95702H16.4984C14.8481 3.95702 13.4891 5.38477 13.4891 6.93952V27.4708H9.31195V21.2677V6.93952C9.31195 3.10154 11.5871 0 15.9099 0H50.8622C55.0424 0 58.0001 2.88 58.0001 6.79214V65.6438C58.0001 69.3415 54.8149 72 50.8622 72Z" fill="#3E3E3E"/>
<g filter="url(#filter2_d_703_219)">
<path d="M33.8834 65.3538C35.7682 65.3538 37.2961 63.866 37.2961 62.0307C37.2961 60.1955 35.7682 58.7077 33.8834 58.7077C31.9986 58.7077 30.4707 60.1955 30.4707 62.0307C30.4707 63.866 31.9986 65.3538 33.8834 65.3538Z" fill="#3E3E3E"/>
</g>
</g>
<g filter="url(#filter3_d_703_219)">
<path d="M17.2749 24.8123L19.368 26.2302L22.7353 27.072L32.0634 20.0271L32.8369 15.3748L31.7903 10.4123H17.2749V24.8123Z" fill="#3E3E3E"/>
<path d="M35.658 16.704L50.4464 17.9889V10.4123H34.3384L35.658 16.704Z" fill="#3E3E3E"/>
<path d="M50.4465 20.7803L37.4782 18.7422L36.9321 21.2234L50.4465 29.509V20.7803Z" fill="#3E3E3E"/>
<path d="M34.748 22.021V22.0653L30.4707 25.2997L34.5205 35.5348L32.8369 36.1108L27.2855 27.6924L24.0548 30.1293L18.5945 55.7834H50.4465V31.6357L34.748 22.021Z" fill="#3E3E3E"/>
</g>
<defs>
<filter id="filter0_d_703_219" x="0" y="0" width="62.0001" height="80" filterUnits="userSpaceOnUse" color-interpolation-filters="sRGB">
<feFlood flood-opacity="0" result="BackgroundImageFix"/>
<feColorMatrix in="SourceAlpha" type="matrix" values="0 0 0 0 0 0 0 0 0 0 0 0 0 0 0 0 0 0 127 0" result="hardAlpha"/>
<feOffset dy="4"/>
<feGaussianBlur stdDeviation="2"/>
<feColorMatrix type="matrix" values="0 0 0 0 0 0 0 0 0 0 0 0 0 0 0 0 0 0 0.25 0"/>
<feBlend mode="normal" in2="BackgroundImageFix" result="effect1_dropShadow_703_219"/>
<feBlend mode="normal" in="SourceGraphic" in2="effect1_dropShadow_703_219" result="shape"/>
</filter>
<filter id="filter1_d_703_219" x="0" y="27.5673" width="22.4396" height="27.8562" filterUnits="userSpaceOnUse" color-interpolation-filters="sRGB">
<feFlood flood-opacity="0" result="BackgroundImageFix"/>
<feColorMatrix in="SourceAlpha" type="matrix" values="0 0 0 0 0 0 0 0 0 0 0 0 0 0 0 0 0 0 127 0" result="hardAlpha"/>
<feOffset dy="4"/>
<feGaussianBlur stdDeviation="2"/>
<feColorMatrix type="matrix" values="0 0 0 0 0 0 0 0 0 0 0 0 0 0 0 0 0 0 0.25 0"/>
<feBlend mode="normal" in2="BackgroundImageFix" result="effect1_dropShadow_703_219"/>
<feBlend mode="normal" in="SourceGraphic" in2="effect1_dropShadow_703_219" result="shape"/>
</filter>
<filter id="filter2_d_703_219" x="26.4707" y="58.7077" width="14.8254" height="14.6461" filterUnits="userSpaceOnUse" color-interpolation-filters="sRGB">
<feFlood flood-opacity="0" result="BackgroundImageFix"/>
<feColorMatrix in="SourceAlpha" type="matrix" values="0 0 0 0 0 0 0 0 0 0 0 0 0 0 0 0 0 0 127 0" result="hardAlpha"/>
<feOffset dy="4"/>
<feGaussianBlur stdDeviation="2"/>
<feColorMatrix type="matrix" values="0 0 0 0 0 0 0 0 0 0 0 0 0 0 0 0 0 0 0.25 0"/>
<feBlend mode="normal" in2="BackgroundImageFix" result="effect1_dropShadow_703_219"/>
<feBlend mode="normal" in="SourceGraphic" in2="effect1_dropShadow_703_219" result="shape"/>
</filter>
<filter id="filter3_d_703_219" x="13.2749" y="10.4123" width="41.1716" height="53.3711" filterUnits="userSpaceOnUse" color-interpolation-filters="sRGB">
<feFlood flood-opacity="0" result="BackgroundImageFix"/>
<feColorMatrix in="SourceAlpha" type="matrix" values="0 0 0 0 0 0 0 0 0 0 0 0 0 0 0 0 0 0 127 0" result="hardAlpha"/>
<feOffset dy="4"/>
<feGaussianBlur stdDeviation="2"/>
<feColorMatrix type="matrix" values="0 0 0 0 0 0 0 0 0 0 0 0 0 0 0 0 0 0 0.25 0"/>
<feBlend mode="normal" in2="BackgroundImageFix" result="effect1_dropShadow_703_219"/>
<feBlend mode="normal" in="SourceGraphic" in2="effect1_dropShadow_703_219" result="shape"/>
</filter>
</defs>
</svg>
