<svg width="54" height="74" viewBox="0 0 54 74" fill="none" xmlns="http://www.w3.org/2000/svg">
<path d="M14.2104 28.5261L12.8352 27.6368C12.207 27.3409 10.7273 28.2135 10.7273 28.8054V33.9182C10.7724 34.0842 10.5432 34.3065 10.314 34.5288L8.19937 36.474C7.9167 36.6085 6.44438 36.6085 6.16171 36.474L4.12559 34.5288C3.89639 34.3065 3.87891 34.1873 3.87891 33.9182V28.8054C3.87891 28.1866 2.46175 27.314 1.8336 27.6368L0.687599 28.5261C0.229199 28.9707 0.229199 29.1395 0 29.86V34.5288C0 35.1937 0.23196 35.6424 0.916799 36.3074L2.7504 37.6413C3.89639 38.3083 5.27159 39.8645 5.27159 40.8323V47.4235H9.39718L9.39718 44.311V40.7538C9.39718 39.8645 11.0704 38.5164 11.9184 38.086L13.2384 36.954C14.1515 36.1196 14.4396 35.3628 14.4396 34.5288V30.0824C14.4082 29.2484 14.4396 28.7484 14.2104 28.5261Z" fill="#3E3E3E"/>
<path d="M46.8622 72H12.4984C8.49715 72 5.31195 69.5631 5.31195 65.6438V52.7262V39.9905H9.48911V65.6438C9.48911 67.1986 10.8481 68.479 12.4984 68.479H46.8622C48.5124 68.479 49.8714 67.1986 49.8714 65.6438V6.79214C49.8714 5.23739 48.5124 3.95702 46.8622 3.95702H12.4984C10.8481 3.95702 9.48911 5.38477 9.48911 6.93952V27.4708H5.31195V21.2677V6.93952C5.31195 3.10154 7.5871 0 11.9099 0H46.8622C51.0424 0 54.0001 2.88 54.0001 6.79214V65.6438C54.0001 69.3415 50.8149 72 46.8622 72Z" fill="#3E3E3E"/>
<g filter="url(#filter0_d_725_243)">
<path d="M29.8834 65.3538C31.7682 65.3538 33.2961 63.866 33.2961 62.0307C33.2961 60.1955 31.7682 58.7077 29.8834 58.7077C27.9986 58.7077 26.4707 60.1955 26.4707 62.0307C26.4707 63.866 27.9986 65.3538 29.8834 65.3538Z" fill="#3E3E3E"/>
</g>
<g filter="url(#filter1_d_725_243)">
<path d="M13.2749 24.8123L15.368 26.2302L18.7353 27.072L28.0634 20.0271L28.8369 15.3748L27.7903 10.4123H13.2749V24.8123Z" fill="#3E3E3E"/>
<path d="M31.658 16.704L46.4464 17.9889V10.4123H30.3384L31.658 16.704Z" fill="#3E3E3E"/>
<path d="M46.4465 20.7803L33.4782 18.7422L32.9321 21.2234L46.4465 29.509V20.7803Z" fill="#3E3E3E"/>
<path d="M30.748 22.021V22.0653L26.4707 25.2997L30.5205 35.5348L28.8369 36.1108L23.2855 27.6924L20.0548 30.1293L14.5945 55.7834H46.4465V31.6357L30.748 22.021Z" fill="#3E3E3E"/>
</g>
<defs>
<filter id="filter0_d_725_243" x="22.4707" y="58.7077" width="14.8254" height="14.6461" filterUnits="userSpaceOnUse" color-interpolation-filters="sRGB">
<feFlood flood-opacity="0" result="BackgroundImageFix"/>
<feColorMatrix in="SourceAlpha" type="matrix" values="0 0 0 0 0 0 0 0 0 0 0 0 0 0 0 0 0 0 127 0" result="hardAlpha"/>
<feOffset dy="4"/>
<feGaussianBlur stdDeviation="2"/>
<feColorMatrix type="matrix" values="0 0 0 0 0 0 0 0 0 0 0 0 0 0 0 0 0 0 0.25 0"/>
<feBlend mode="normal" in2="BackgroundImageFix" result="effect1_dropShadow_725_243"/>
<feBlend mode="normal" in="SourceGraphic" in2="effect1_dropShadow_725_243" result="shape"/>
</filter>
<filter id="filter1_d_725_243" x="9.2749" y="10.4123" width="41.1716" height="53.3711" filterUnits="userSpaceOnUse" color-interpolation-filters="sRGB">
<feFlood flood-opacity="0" result="BackgroundImageFix"/>
<feColorMatrix in="SourceAlpha" type="matrix" values="0 0 0 0 0 0 0 0 0 0 0 0 0 0 0 0 0 0 127 0" result="hardAlpha"/>
<feOffset dy="4"/>
<feGaussianBlur stdDeviation="2"/>
<feColorMatrix type="matrix" values="0 0 0 0 0 0 0 0 0 0 0 0 0 0 0 0 0 0 0.25 0"/>
<feBlend mode="normal" in2="BackgroundImageFix" result="effect1_dropShadow_725_243"/>
<feBlend mode="normal" in="SourceGraphic" in2="effect1_dropShadow_725_243" result="shape"/>
</filter>
</defs>
</svg>
