<?xml version="1.0" standalone="no"?>
<!DOCTYPE svg PUBLIC "-//W3C//DTD SVG 20010904//EN"
 "http://www.w3.org/TR/2001/REC-SVG-20010904/DTD/svg10.dtd">
<svg version="1.0" xmlns="http://www.w3.org/2000/svg"
 width="1184.000000pt" height="1184.000000pt" viewBox="0 0 1184.000000 1184.000000"
 preserveAspectRatio="xMidYMid meet">
<metadata>
Created by potrace 1.14, written by Peter Selinger 2001-2017
</metadata>
<g transform="translate(0.000000,1184.000000) scale(0.100000,-0.100000)"
fill="#000000" stroke="none">
<path d="M3355 11833 c-16 -2 -54 -8 -82 -14 -29 -6 -54 -10 -55 -9 -2 0 -43
-13 -92 -30 -168 -57 -297 -143 -422 -282 -31 -34 -104 -144 -104 -156 0 -6
-3 -12 -7 -14 -7 -3 -36 -64 -64 -133 -10 -26 -30 -91 -34 -113 -2 -9 -4 -17
-5 -17 -2 0 -7 -24 -15 -69 -4 -21 -10 -48 -13 -60 -9 -30 -14 -3486 -5 -3487
5 -1 155 -2 334 -3 l327 -1 0 1655 c0 910 3 1673 6 1694 13 94 62 189 136 265
27 28 52 51 55 51 4 0 21 11 38 24 18 13 61 35 97 47 l65 24 2818 1 c1550 0
2820 -3 2823 -7 2 -5 11 -6 19 -3 18 7 125 -25 143 -43 7 -7 18 -13 23 -13 41
0 199 -169 199 -212 0 -8 5 -19 12 -26 7 -7 9 -12 5 -12 -4 0 -1 -13 7 -29 13
-25 15 -607 13 -4822 -2 -2637 -5 -4801 -8 -4810 -18 -60 -77 -156 -126 -203
-59 -59 -166 -118 -238 -132 -22 -4 -266 -7 -542 -8 -328 -1 -503 -4 -503 -11
0 -6 -3 -6 -8 0 -9 14 -304 14 -314 0 -5 -7 -8 -7 -8 0 0 7 -203 10 -590 10
-390 0 -590 3 -590 10 0 7 -3 7 -8 0 -10 -14 -114 -16 -105 -2 4 6 1 7 -8 2
-20 -13 -113 -13 -121 -1 -5 7 -8 7 -8 1 0 -12 -99 -13 -117 -2 -6 4 -14 4
-16 0 -3 -5 -442 -8 -976 -8 -641 0 -971 -3 -971 -10 0 -6 -3 -6 -8 0 -9 14
-304 14 -314 0 -5 -7 -8 -7 -8 0 0 6 -85 10 -233 11 -127 1 -241 4 -252 7 -11
3 -33 8 -50 12 -56 14 -159 77 -209 129 -49 51 -102 141 -111 188 -3 13 -8 36
-11 53 -9 41 -8 4085 1 4114 17 55 113 163 226 256 34 28 137 95 146 95 5 0
31 22 59 48 28 26 68 60 88 76 57 43 186 177 186 192 0 8 3 14 8 14 9 0 39 67
59 130 21 68 15 1002 -7 1045 -14 28 -171 143 -197 144 -7 1 -13 5 -13 10 0
15 -61 30 -101 26 -78 -8 -203 -82 -240 -141 l-23 -38 -1 -434 0 -434 -86 -81
c-48 -45 -119 -111 -159 -147 -39 -36 -90 -82 -112 -103 -51 -50 -81 -58 -203
-57 -172 0 -135 -23 -420 255 l-113 110 0 130 c0 72 -1 135 -2 140 -1 6 -1 15
0 20 2 13 2 207 0 220 -1 6 -1 15 0 20 1 6 1 90 0 187 -1 195 -6 217 -63 263
-18 15 -40 33 -50 41 -9 8 -21 14 -26 14 -4 0 -22 7 -39 16 -18 8 -52 18 -78
20 -43 5 -64 -2 -109 -37 -5 -5 -44 -35 -86 -68 -79 -62 -129 -119 -129 -145
0 -8 -4 -17 -8 -20 -27 -17 -33 -121 -30 -521 l3 -410 30 -54 c40 -72 101
-133 220 -219 55 -40 107 -78 116 -85 45 -35 79 -57 88 -57 5 0 11 -3 13 -7 2
-5 28 -27 58 -49 108 -81 210 -197 269 -306 17 -31 31 -66 31 -77 0 -12 3 -21
8 -21 4 0 8 -910 10 -2023 2 -1112 5 -2051 8 -2087 4 -68 9 -99 19 -130 3 -10
8 -28 10 -39 3 -12 7 -29 9 -40 10 -43 69 -166 110 -230 160 -248 446 -418
786 -466 44 -7 173 -14 265 -15 136 -1 360 -1 385 0 14 1 30 2 35 1 12 0 104
0 125 0 8 0 33 0 55 0 22 0 47 0 55 0 8 0 38 0 65 0 28 0 57 0 65 0 8 0 33 0
55 0 22 0 47 0 55 0 8 0 38 0 65 0 28 0 57 0 65 0 8 0 33 0 55 0 22 0 47 0 55
0 8 0 38 0 65 0 28 0 57 0 65 0 8 0 33 0 55 0 22 0 47 0 55 0 8 0 38 0 65 0
28 0 57 0 65 0 8 0 33 0 55 0 22 0 47 0 55 0 8 0 38 0 65 0 28 0 57 0 65 0 8
0 33 0 55 0 22 0 47 0 55 0 13 0 60 0 135 0 11 0 38 0 60 0 22 0 47 0 55 0 58
-2 114 0 121 5 5 3 9 2 9 -3 0 -4 21 -7 47 -5 46 3 62 3 146 -1 20 -1 37 0 37
3 0 3 28 4 62 3 35 -1 63 -2 63 -3 0 -2 240 -1 250 1 6 1 15 0 20 -1 6 -1 75
-1 155 -1 80 1 151 2 158 2 6 0 40 -1 75 -1 34 0 91 0 127 -1 36 -1 72 -1 80
0 8 0 38 0 65 0 28 -1 57 -1 65 0 8 0 44 0 80 0 36 0 72 0 80 0 8 0 44 0 80 0
36 0 70 0 75 0 6 0 65 0 133 1 68 1 125 0 128 -2 2 -3 26 -2 54 2 27 3 54 4
60 0 5 -3 35 -3 66 0 30 3 57 3 59 0 2 -4 27 -4 54 0 28 3 55 4 61 0 5 -3 35
-3 66 0 30 3 57 3 59 0 2 -4 27 -4 54 0 28 3 55 4 61 0 5 -3 35 -3 66 0 30 3
57 3 59 0 2 -4 27 -4 54 0 28 3 55 4 61 0 5 -3 35 -3 66 0 30 3 57 2 60 -2 3
-5 9 -6 13 -4 7 4 73 7 111 5 8 0 40 0 70 0 30 0 62 0 70 0 12 -1 95 3 278 15
12 0 22 4 22 9 0 4 3 6 8 5 13 -4 87 13 152 35 36 11 67 22 70 22 3 1 22 9 42
18 21 10 42 17 48 17 5 0 10 5 10 10 0 6 6 10 13 10 8 0 56 28 107 62 105 69
223 182 278 267 20 31 39 58 42 61 15 14 89 191 96 229 3 13 11 54 19 90 12
57 14 757 12 4906 -1 2662 -5 4847 -8 4855 -3 8 -9 38 -14 65 -4 28 -12 58
-17 68 -5 10 -12 29 -14 43 -2 13 -9 36 -16 51 -6 16 -12 30 -12 33 -4 16 -72
141 -99 179 -77 112 -178 210 -296 286 -59 38 -93 55 -196 100 -46 20 -124 44
-185 55 -30 6 -68 14 -85 18 -31 7 -5887 12 -5940 5z"/>
<path d="M3726 10170 c-5 -10 -1 -2299 4 -2303 20 -18 112 -77 119 -77 5 0 11
-4 13 -8 2 -5 48 -39 103 -75 94 -62 169 -91 285 -111 8 -2 35 -9 60 -15 25
-7 52 -14 60 -16 8 -2 63 -15 122 -30 l106 -26 84 63 c45 34 90 68 98 75 8 7
62 47 120 90 58 42 107 80 110 83 12 13 131 100 136 100 4 0 12 6 18 13 6 8
92 74 191 148 99 74 182 136 185 139 3 3 27 21 53 40 26 19 62 47 80 62 18 15
35 28 39 28 4 0 13 6 20 13 7 7 40 33 73 57 33 24 66 50 73 57 7 7 17 13 20
13 4 0 18 10 32 23 14 12 55 45 92 72 53 38 69 56 73 79 26 162 35 217 41 251
3 22 10 60 16 85 5 25 11 63 14 85 2 22 6 51 9 65 2 13 7 40 10 60 3 19 11 62
18 95 11 52 10 71 -5 142 -9 45 -20 101 -23 125 -4 23 -9 46 -12 50 -2 5 -6
21 -9 36 -3 15 -16 81 -29 147 -14 66 -27 129 -29 140 -3 11 -12 50 -20 87 -9
37 -15 71 -15 75 1 4 0 15 -4 23 -3 8 -7 22 -9 30 -4 13 -149 15 -1162 15
-637 0 -1159 -2 -1160 -5z"/>
<path d="M6468 10172 c-13 -3 -15 -9 -8 -30 5 -15 11 -40 14 -57 8 -50 16 -89
23 -115 3 -14 7 -32 9 -40 2 -8 6 -31 10 -50 4 -19 8 -41 10 -49 1 -7 7 -34
13 -60 6 -25 13 -57 15 -71 2 -14 12 -59 21 -100 9 -41 18 -84 19 -95 2 -11 8
-40 14 -65 11 -44 19 -85 27 -125 22 -119 29 -145 39 -146 6 -1 27 -3 46 -4
19 -2 55 -6 80 -9 25 -3 81 -8 125 -11 44 -3 98 -8 120 -11 22 -2 72 -7 110
-10 39 -3 90 -7 115 -9 132 -11 179 -15 220 -19 25 -2 81 -7 125 -11 44 -4
100 -9 125 -11 25 -2 74 -6 110 -9 36 -2 90 -7 120 -11 30 -3 75 -7 100 -9 25
-2 45 -4 45 -4 0 -2 28 -4 205 -16 36 -2 65 -5 65 -6 0 -1 59 -6 150 -13 28
-2 50 -5 50 -6 0 -1 28 -3 62 -5 34 -2 82 -6 105 -9 24 -3 84 -8 133 -11 50
-3 102 -8 118 -11 l27 -6 0 79 c1 100 1 1126 0 1133 0 5 -2535 7 -2562 2z"/>
<path d="M6957 8833 c-3 -4 -11 -35 -18 -68 -7 -33 -14 -64 -15 -70 -1 -5 -4
-21 -7 -35 -3 -14 -15 -67 -27 -119 -17 -76 -18 -96 -8 -103 13 -8 123 -77
163 -101 11 -7 39 -24 62 -39 23 -16 46 -28 52 -28 6 0 11 -4 11 -10 0 -5 5
-10 11 -10 6 0 30 -13 54 -30 24 -16 46 -30 50 -30 3 0 36 -20 73 -44 37 -23
110 -69 162 -101 52 -32 113 -70 135 -84 22 -14 42 -26 45 -26 3 0 16 -8 30
-17 14 -9 88 -55 165 -102 77 -47 147 -91 155 -96 8 -6 30 -18 48 -27 17 -9
32 -20 32 -25 0 -4 6 -8 13 -8 7 0 36 -16 64 -35 29 -19 57 -35 63 -35 5 0 10
-4 10 -10 0 -5 7 -10 15 -10 8 0 15 -4 15 -10 0 -5 4 -10 9 -10 5 0 45 -22 88
-48 43 -27 89 -55 103 -63 14 -8 27 -17 30 -20 3 -3 25 -16 50 -30 25 -13 47
-27 48 -31 2 -5 10 -8 18 -8 8 0 14 -4 14 -10 0 -5 5 -10 11 -10 6 0 29 -13
52 -28 23 -16 49 -32 57 -35 8 -4 27 -15 42 -25 15 -9 60 -37 100 -62 40 -24
76 -48 79 -53 4 -5 10 -4 13 2 4 6 8 319 9 696 2 679 2 686 -18 690 -23 5 -54
11 -145 25 -36 6 -76 13 -90 16 -14 2 -43 7 -65 10 -35 4 -168 25 -245 38 -28
5 -161 26 -200 31 -14 2 -41 7 -60 10 -19 4 -53 9 -75 10 -22 2 -40 5 -40 6 0
2 -14 4 -75 13 -19 3 -46 7 -60 10 -42 8 -173 29 -200 31 -14 2 -41 6 -60 9
-19 4 -48 8 -65 10 -16 2 -46 7 -65 10 -19 3 -48 8 -65 11 -16 3 -46 8 -65 11
-19 3 -46 7 -60 10 -14 2 -43 7 -65 9 -22 3 -52 8 -67 10 -57 10 -85 14 -148
24 -36 6 -81 13 -102 16 -20 3 -38 2 -41 -2z"/>
<path d="M6519 8313 c-4 -8 -186 -149 -218 -168 -9 -5 -18 -13 -21 -16 -3 -3
-99 -77 -215 -163 -115 -87 -214 -162 -219 -167 -9 -8 21 -99 66 -198 11 -25
21 -52 23 -60 5 -19 49 -129 76 -188 10 -24 19 -49 19 -57 0 -8 5 -18 10 -21
6 -4 8 -10 5 -15 -3 -5 -1 -11 5 -15 6 -4 8 -11 5 -16 -4 -5 -1 -9 4 -9 6 0
11 -6 11 -14 0 -7 9 -35 21 -62 11 -27 24 -58 28 -69 10 -24 12 -29 136 -345
98 -248 107 -272 125 -312 59 -140 97 -254 90 -268 -5 -8 -10 -12 -10 -9 0 4
-37 -7 -82 -23 -46 -16 -90 -31 -98 -33 -8 -2 -26 -8 -40 -13 -24 -9 -31 -1
-195 247 -383 578 -670 1015 -674 1025 -2 6 -7 13 -11 16 -3 3 -13 15 -21 27
-15 21 -15 21 -89 -35 -41 -31 -81 -62 -88 -69 -7 -7 -16 -13 -20 -13 -4 0
-22 -14 -41 -30 -18 -17 -36 -30 -40 -30 -3 0 -20 -13 -38 -28 -18 -15 -63
-49 -100 -77 -37 -27 -74 -56 -81 -62 -7 -7 -17 -13 -22 -13 -5 0 -14 -26 -21
-57 -15 -76 -15 -74 -23 -103 -4 -14 -9 -38 -11 -55 -2 -16 -4 -30 -5 -30 -2
0 -3 -7 -13 -55 -24 -114 -29 -137 -32 -155 -1 -11 -7 -38 -13 -60 -6 -22 -13
-56 -16 -75 -4 -19 -15 -73 -26 -120 -11 -47 -23 -101 -26 -120 -2 -19 -10
-53 -16 -75 -6 -22 -12 -49 -13 -60 -1 -11 -3 -20 -5 -20 -1 0 -3 -9 -4 -20
-3 -19 -20 -101 -41 -200 -25 -112 -45 -206 -50 -237 -4 -18 -11 -53 -17 -78
-12 -51 -45 -210 -54 -255 -3 -16 -12 -55 -19 -85 -12 -48 -17 -74 -29 -150
-1 -9 -5 -21 -10 -28 -4 -6 -5 -12 -2 -12 3 0 2 -10 -3 -23 -5 -13 -12 -39
-15 -58 -3 -19 -13 -68 -22 -109 -18 -82 -17 -79 -39 -195 -9 -44 -19 -87 -22
-95 -3 -8 -7 -22 -8 -30 -3 -16 -11 -59 -20 -100 -3 -14 -10 -45 -15 -70 -5
-25 -12 -56 -15 -70 -3 -14 -8 -36 -10 -50 -2 -14 -11 -54 -19 -90 -9 -36 -18
-83 -22 -104 -3 -22 -9 -49 -14 -60 -4 -12 -8 -23 -8 -26 0 -4 -7 -41 -16 -90
-2 -8 -6 -26 -9 -40 -4 -14 -9 -36 -11 -50 -3 -14 -12 -59 -21 -100 -9 -41
-19 -88 -22 -105 -8 -43 -11 -60 -13 -60 -1 0 -3 -7 -5 -15 -1 -8 -10 -51 -19
-95 -9 -44 -18 -91 -21 -105 -3 -14 -8 -38 -12 -55 -4 -16 -7 -32 -8 -35 0 -3
-4 -21 -8 -40 -9 -44 -16 -74 -23 -103 -3 -12 -8 -38 -11 -57 l-5 -35 2546 0
2546 0 0 57 c1 32 1 866 1 1853 0 987 0 1830 -1 1874 l0 78 -62 40 c-35 22
-114 71 -176 109 -62 38 -129 79 -150 92 -20 12 -52 30 -69 39 -18 9 -33 20
-33 25 0 4 -4 8 -9 8 -5 0 -82 45 -171 100 -89 55 -166 100 -171 100 -5 0 -9
3 -9 8 0 4 -29 23 -65 41 -36 19 -65 38 -65 41 0 4 -8 10 -17 14 -10 3 -27 11
-38 18 -74 48 -135 86 -168 103 -20 11 -37 23 -37 27 0 5 -4 8 -10 8 -5 0
-105 59 -221 130 -116 72 -215 130 -220 130 -5 0 -9 5 -9 10 0 6 -5 10 -11 10
-5 0 -37 18 -69 40 -32 22 -61 40 -64 40 -5 0 -118 70 -141 87 -6 5 -32 19
-58 33 -26 13 -47 28 -47 32 0 5 -5 8 -11 8 -6 0 -30 12 -53 28 -22 15 -97 61
-166 102 -69 41 -126 78 -128 83 -2 4 -9 7 -15 7 -6 0 -18 7 -28 16 -9 8 -19
12 -20 7z"/>
<path d="M6310 2443 c-77 -11 -229 -71 -238 -94 -2 -5 -9 -9 -16 -9 -19 0
-146 -137 -146 -158 0 -6 -6 -17 -12 -24 -13 -13 -39 -88 -56 -158 -9 -38 -8
-122 4 -185 4 -22 7 -50 8 -62 1 -12 3 -20 5 -17 8 7 32 -50 26 -63 -2 -8 0
-11 5 -8 6 3 14 -4 19 -17 5 -13 21 -36 35 -52 14 -16 23 -33 20 -38 -3 -4 0
-7 8 -6 7 2 12 -3 10 -10 -1 -8 2 -11 6 -8 12 7 44 -28 35 -39 -5 -4 -2 -5 6
0 9 5 18 3 25 -6 6 -8 25 -21 41 -29 17 -8 36 -21 43 -28 8 -7 18 -10 23 -7 5
4 9 3 9 -2 0 -4 12 -9 26 -10 15 0 29 -5 33 -10 6 -8 23 -12 74 -16 15 -1 27
-5 27 -10 0 -4 5 -5 10 -2 9 6 114 15 173 16 9 0 17 4 17 10 0 5 9 9 19 9 24
0 152 67 167 88 7 9 16 12 25 7 8 -5 11 -5 8 -1 -11 12 59 79 73 70 10 -5 10
-4 1 6 -9 10 -9 16 0 26 28 31 35 42 41 62 4 12 12 22 17 22 5 0 8 3 8 8 -1 4
0 9 1 12 1 3 3 12 5 20 2 8 10 38 17 65 8 28 13 65 13 83 0 17 4 32 10 32 6 0
7 3 0 8 -5 4 -11 23 -11 42 -5 125 -92 289 -191 360 -19 14 -40 30 -47 36 -18
17 -101 54 -157 70 -47 14 -171 24 -219 17z"/>
<path d="M5870 1520 c0 -5 5 -10 11 -10 5 0 7 5 4 10 -3 6 -8 10 -11 10 -2 0
-4 -4 -4 -10z"/>
<path d="M6595 1380 c3 -5 8 -10 11 -10 2 0 4 5 4 10 0 6 -5 10 -11 10 -5 0
-7 -4 -4 -10z"/>
<path d="M6679 1353 c-13 -17 -13 -17 6 -3 11 8 22 16 24 17 2 2 0 3 -6 3 -6
0 -17 -8 -24 -17z"/>
<path d="M6780 1366 c0 -2 8 -10 18 -17 15 -13 16 -12 3 4 -13 16 -21 21 -21
13z"/>
<path d="M6135 1351 c-3 -5 -2 -12 3 -15 5 -3 9 1 9 9 0 17 -3 19 -12 6z"/>
<path d="M6210 1340 c0 -5 5 -10 11 -10 5 0 7 5 4 10 -3 6 -8 10 -11 10 -2 0
-4 -4 -4 -10z"/>
<path d="M6490 1339 c0 -5 5 -7 10 -4 6 3 10 8 10 11 0 2 -4 4 -10 4 -5 0 -10
-5 -10 -11z"/>
<path d="M6537 1315 c-4 -8 -3 -16 1 -19 4 -3 9 4 9 15 2 23 -3 25 -10 4z"/>
<path d="M6614 1316 c1 -8 5 -18 8 -22 4 -3 5 1 4 10 -1 8 -5 18 -8 22 -4 3
-5 -1 -4 -10z"/>
<path d="M6910 1320 c0 -5 5 -10 11 -10 5 0 7 5 4 10 -3 6 -8 10 -11 10 -2 0
-4 -4 -4 -10z"/>
<path d="M6036 1307 c3 -10 9 -15 12 -12 3 3 0 11 -7 18 -10 9 -11 8 -5 -6z"/>
<path d="M6216 1302 c-3 -4 4 -9 15 -9 23 -2 25 3 4 10 -8 4 -16 3 -19 -1z"/>
<path d="M6490 1299 c0 -5 5 -7 10 -4 6 3 10 8 10 11 0 2 -4 4 -10 4 -5 0 -10
-5 -10 -11z"/>
<path d="M6135 1259 c-3 -4 2 -6 10 -5 21 3 28 13 10 13 -9 0 -18 -4 -20 -8z"/>
<path d="M6230 1241 c0 -6 4 -13 10 -16 6 -3 7 1 4 9 -7 18 -14 21 -14 7z"/>
<path d="M6616 1218 c3 -5 10 -6 15 -3 13 9 11 12 -6 12 -8 0 -12 -4 -9 -9z"/>
<path d="M6386 1198 c3 -5 10 -6 15 -3 13 9 11 12 -6 12 -8 0 -12 -4 -9 -9z"/>
<path d="M6574 1196 c1 -8 5 -18 8 -22 4 -3 5 1 4 10 -1 8 -5 18 -8 22 -4 3
-5 -1 -4 -10z"/>
<path d="M6170 1179 c0 -5 5 -7 10 -4 6 3 10 8 10 11 0 2 -4 4 -10 4 -5 0 -10
-5 -10 -11z"/>
<path d="M6530 1179 c0 -5 5 -7 10 -4 6 3 10 8 10 11 0 2 -4 4 -10 4 -5 0 -10
-5 -10 -11z"/>
<path d="M6656 1182 c-3 -4 4 -9 15 -9 23 -2 25 3 4 10 -8 4 -16 3 -19 -1z"/>
<path d="M6475 1169 c-4 -6 -5 -12 -2 -15 2 -3 7 2 10 11 7 17 1 20 -8 4z"/>
<path d="M5626 1162 c-3 -5 1 -9 9 -9 8 0 12 4 9 9 -3 4 -7 8 -9 8 -2 0 -6 -4
-9 -8z"/>
<path d="M6095 1160 c3 -5 8 -10 11 -10 2 0 4 5 4 10 0 6 -5 10 -11 10 -5 0
-7 -4 -4 -10z"/>
<path d="M6425 1160 c-3 -6 1 -7 9 -4 18 7 21 14 7 14 -6 0 -13 -4 -16 -10z"/>
<path d="M6633 1155 c0 -8 4 -12 9 -9 5 3 6 10 3 15 -9 13 -12 11 -12 -6z"/>
<path d="M6134 1142 c4 -3 14 -7 22 -8 9 -1 13 0 10 4 -4 3 -14 7 -22 8 -9 1
-13 0 -10 -4z"/>
<path d="M6255 1140 c-3 -5 -1 -10 4 -10 6 0 11 5 11 10 0 6 -2 10 -4 10 -3 0
-8 -4 -11 -10z"/>
<path d="M6096 1122 c-3 -5 1 -9 9 -9 8 0 12 4 9 9 -3 4 -7 8 -9 8 -2 0 -6 -4
-9 -8z"/>
<path d="M6346 1118 c3 -5 10 -6 15 -3 13 9 11 12 -6 12 -8 0 -12 -4 -9 -9z"/>
<path d="M6253 1105 c0 -8 4 -12 9 -9 5 3 6 10 3 15 -9 13 -12 11 -12 -6z"/>
<path d="M6286 1102 c-3 -5 1 -9 9 -9 8 0 12 4 9 9 -3 4 -7 8 -9 8 -2 0 -6 -4
-9 -8z"/>
<path d="M6514 1102 c4 -3 14 -7 22 -8 9 -1 13 0 10 4 -4 3 -14 7 -22 8 -9 1
-13 0 -10 -4z"/>
<path d="M6414 1076 c1 -8 5 -18 8 -22 4 -3 5 1 4 10 -1 8 -5 18 -8 22 -4 3
-5 -1 -4 -10z"/>
<path d="M6334 1062 c4 -3 14 -7 22 -8 9 -1 13 0 10 4 -4 3 -14 7 -22 8 -9 1
-13 0 -10 -4z"/>
<path d="M6110 1041 c0 -6 4 -13 10 -16 6 -3 7 1 4 9 -7 18 -14 21 -14 7z"/>
<path d="M6239 1013 c-12 -16 -12 -17 2 -6 9 7 20 9 24 5 5 -4 5 -1 1 6 -9 16
-11 15 -27 -5z"/>
<path d="M6326 1022 c-3 -5 1 -9 9 -9 8 0 12 4 9 9 -3 4 -7 8 -9 8 -2 0 -6 -4
-9 -8z"/>
<path d="M6716 1007 c3 -10 9 -15 12 -12 3 3 0 11 -7 18 -10 9 -11 8 -5 -6z"/>
<path d="M6370 1000 c0 -5 5 -10 11 -10 5 0 7 5 4 10 -3 6 -8 10 -11 10 -2 0
-4 -4 -4 -10z"/>
<path d="M6450 999 c0 -5 5 -7 10 -4 6 3 10 8 10 11 0 2 -4 4 -10 4 -5 0 -10
-5 -10 -11z"/>
<path d="M6555 969 c-4 -6 -5 -12 -2 -15 2 -3 7 2 10 11 7 17 1 20 -8 4z"/>
<path d="M6226 958 c3 -4 9 -8 15 -8 5 0 9 4 9 8 0 5 -7 9 -15 9 -8 0 -12 -4
-9 -9z"/>
<path d="M6485 960 c-3 -6 1 -7 9 -4 18 7 21 14 7 14 -6 0 -13 -4 -16 -10z"/>
<path d="M6710 936 c0 -2 8 -10 18 -17 15 -13 16 -12 3 4 -13 16 -21 21 -21
13z"/>
</g>
</svg>
