<svg width="105" height="98" viewBox="0 0 105 98" fill="none" xmlns="http://www.w3.org/2000/svg">
<path d="M30.9978 37.6445V43.5285H20.0648V34.1005L30.9978 37.6445Z" fill="#FFEBAF"/>
<path d="M60.2818 13.1585C60.2835 15.7167 59.4411 18.2041 57.885 20.2347C56.329 22.2653 54.1464 23.7258 51.6758 24.3895V15.0705C51.6763 14.8193 51.6272 14.5706 51.5314 14.3384C51.4356 14.1063 51.2948 13.8953 51.1173 13.7177C50.9398 13.54 50.7289 13.3992 50.4968 13.3032C50.2647 13.2073 50.0159 13.1581 49.7648 13.1585H36.9948C36.9805 11.6204 37.2712 10.0947 37.8499 8.6695C38.4287 7.24434 39.2841 5.94797 40.3667 4.85527C41.4493 3.76258 42.7377 2.89522 44.1574 2.30329C45.5771 1.71135 47.1001 1.40659 48.6383 1.40659C50.1765 1.40659 51.6994 1.71135 53.1192 2.30329C54.5389 2.89522 55.8273 3.76258 56.9099 4.85527C57.9925 5.94797 58.8479 7.24434 59.4266 8.6695C60.0054 10.0947 60.296 11.6204 60.2818 13.1585Z" fill="#FFEBAF"/>
<path d="M73.7918 97.1875C70.4947 97.1835 67.3338 95.8719 65.0026 93.5403C62.6714 91.2087 61.3602 88.0476 61.3568 84.7505C61.3568 84.3527 61.5148 83.9711 61.7961 83.6898C62.0774 83.4085 62.459 83.2505 62.8568 83.2505C63.2546 83.2505 63.6361 83.4085 63.9174 83.6898C64.1987 83.9711 64.3568 84.3527 64.3568 84.7505C64.3568 87.2536 65.3511 89.6542 67.1211 91.4242C68.8911 93.1941 71.2917 94.1885 73.7948 94.1885C76.2979 94.1885 78.6985 93.1941 80.4685 91.4242C82.2384 89.6542 83.2328 87.2536 83.2328 84.7505C83.2328 84.3527 83.3908 83.9711 83.6721 83.6898C83.9534 83.4085 84.335 83.2505 84.7328 83.2505C85.1306 83.2505 85.5121 83.4085 85.7934 83.6898C86.0747 83.9711 86.2328 84.3527 86.2328 84.7505C86.2291 88.0485 84.917 91.2104 82.5846 93.5421C80.2521 95.8738 77.0898 97.1848 73.7918 97.1875Z" fill="black"/>
<path d="M87.8908 81.4335C87.6943 81.4344 87.4996 81.3966 87.3178 81.3221C87.1359 81.2476 86.9706 81.1379 86.8313 80.9994C86.6919 80.8609 86.5813 80.6962 86.5057 80.5149C86.4301 80.3335 86.391 80.139 86.3908 79.9425C86.3912 79.7827 86.4144 79.6237 86.4598 79.4705C87.2155 77.0638 87.4825 74.5302 87.245 72.0188C87.0075 69.5075 86.2703 67.0689 85.0768 64.8465C84.9789 64.6727 84.9168 64.4811 84.8938 64.283C84.8709 64.0849 84.8878 63.8842 84.9433 63.6926C84.9989 63.5011 85.0922 63.3225 85.2176 63.1675C85.343 63.0124 85.4981 62.8839 85.6738 62.7894C85.8495 62.695 86.0422 62.6366 86.2407 62.6175C86.4393 62.5985 86.6396 62.6192 86.83 62.6786C87.0205 62.7379 87.1972 62.8346 87.3498 62.963C87.5024 63.0914 87.6278 63.249 87.7188 63.4265C89.099 65.9955 89.9531 68.814 90.2309 71.717C90.5087 74.6201 90.2048 77.5494 89.3368 80.3335C89.2482 80.6492 89.0591 80.9274 88.7982 81.1259C88.5372 81.3244 88.2187 81.4324 87.8908 81.4335Z" fill="black"/>
<path d="M16.0008 97.1875C12.7035 97.1835 9.54241 95.8719 7.21088 93.5404C4.87935 91.2089 3.56776 88.0478 3.56379 84.7505C3.55869 83.7764 3.67765 82.8056 3.91779 81.8615C4.0306 81.4907 4.28258 81.1779 4.62091 80.9888C4.95925 80.7996 5.35766 80.7488 5.73264 80.8469C6.10763 80.9451 6.43006 81.1846 6.63235 81.5152C6.83465 81.8458 6.90111 82.242 6.81779 82.6205C6.63999 83.3164 6.55293 84.0323 6.55879 84.7505C6.55604 87.0642 7.40409 89.2981 8.94152 91.0272C10.479 92.7562 12.5984 93.8596 14.8966 94.1273C17.1948 94.3951 19.5111 93.8085 21.4049 92.4793C23.2986 91.15 24.6375 89.1709 25.1668 86.9185C25.2087 86.7238 25.289 86.5395 25.403 86.3761C25.517 86.2128 25.6623 86.0738 25.8305 85.9673C25.9988 85.8607 26.1865 85.7887 26.3829 85.7555C26.5792 85.7223 26.7802 85.7285 26.9742 85.7738C27.1681 85.8191 27.3511 85.9025 27.5124 86.0192C27.6737 86.136 27.8102 86.2837 27.9139 86.4537C28.0175 86.6238 28.0863 86.8127 28.1162 87.0096C28.146 87.2065 28.1364 87.4074 28.0878 87.6005C27.4577 90.3317 25.9185 92.7679 23.7224 94.5098C21.5264 96.2516 18.8038 97.1958 16.0008 97.1875Z" fill="black"/>
<path d="M48.4158 79.7915H36.6408C36.243 79.7915 35.8614 79.6335 35.5801 79.3522C35.2988 79.0709 35.1408 78.6893 35.1408 78.2915V76.7335C35.1422 75.1211 35.6949 73.5577 36.7071 72.3027C37.7194 71.0476 39.1303 70.1764 40.7058 69.8335V59.4335C40.7103 56.3965 41.9191 53.4852 44.067 51.3382C46.215 49.1912 49.1268 47.9837 52.1638 47.9805H67.0998C67.2968 47.9805 67.4918 48.0193 67.6738 48.0947C67.8558 48.1701 68.0212 48.2806 68.1604 48.4198C68.2997 48.5591 68.4102 48.7245 68.4856 48.9065C68.561 49.0885 68.5998 49.2835 68.5998 49.4805V52.5615C68.5971 54.5854 67.7918 56.5257 66.3605 57.9566C64.9292 59.3876 62.9887 60.1924 60.9648 60.1945H53.5848C53.4759 60.195 53.3717 60.2385 53.2947 60.3155C53.2178 60.3924 53.1743 60.4967 53.1738 60.6055V75.0355C53.1725 76.2968 52.6707 77.5061 51.7786 78.3977C50.8865 79.2894 49.6771 79.7907 48.4158 79.7915ZM38.1408 76.7915H48.4158C48.8819 76.7912 49.3288 76.6061 49.6586 76.2767C49.9883 75.9473 50.174 75.5006 50.1748 75.0345V60.6065C50.1753 59.7025 50.5346 58.8358 51.1738 58.1966C51.813 57.5574 52.6798 57.198 53.5838 57.1975H60.9638C62.193 57.1964 63.3716 56.7077 64.2408 55.8385C65.11 54.9693 65.5987 53.7907 65.5998 52.5615V50.9785H52.1638C49.9211 50.9814 47.7712 51.8737 46.1856 53.4597C44.6 55.0457 43.7082 57.1958 43.7058 59.4385V71.1775C43.7058 71.5753 43.5477 71.9569 43.2664 72.2382C42.9851 72.5195 42.6036 72.6775 42.2058 72.6775H42.1998C41.1246 72.6791 40.0938 73.1069 39.3335 73.8672C38.5732 74.6275 38.1454 75.6583 38.1438 76.7335L38.1408 76.7915Z" fill="black"/>
<path d="M30.5018 89.6805C30.385 89.6798 30.2686 89.6661 30.1548 89.6395L1.15479 82.7805C0.962711 82.736 0.781398 82.6538 0.621395 82.5386C0.461392 82.4234 0.325895 82.2775 0.222786 82.1095C0.119445 81.9417 0.0501817 81.7552 0.0189533 81.5606C-0.0122751 81.366 -0.00485623 81.1672 0.0407858 80.9755C0.86454 77.5525 2.76311 74.4834 5.45819 72.2181C8.15328 69.9528 11.5032 68.6103 15.0168 68.3875C15.237 68.3737 15.4575 68.4093 15.6621 68.4916C15.8668 68.574 16.0505 68.701 16.1998 68.8635L29.6168 83.2525H30.8168C30.8774 83.2487 30.9382 83.2487 30.9988 83.2525H57.4588C57.8289 79.0378 59.8135 75.1292 62.9979 72.3436C66.1823 69.5579 70.3201 68.1107 74.5466 68.3043C78.773 68.498 82.7611 70.3175 85.6775 73.3827C88.5938 76.4479 90.2126 80.5216 90.1958 84.7525C90.1958 85.1503 90.0378 85.5318 89.7564 85.8132C89.4751 86.0945 89.0936 86.2525 88.6958 86.2525H32.3368C32.2679 87.0221 32.1418 87.7855 31.9598 88.5365C31.88 88.8629 31.693 89.1531 31.4286 89.3606C31.1642 89.568 30.8378 89.6807 30.5018 89.6805ZM28.8598 86.2495L29.3078 86.3565L29.3188 86.2565H28.9608C28.9308 86.2525 28.8948 86.2505 28.8638 86.2495H28.8598ZM3.39179 80.2265L28.3918 86.1365C28.1949 86.0552 28.0179 85.9324 27.8728 85.7765L14.5018 71.4425C12.0172 71.7313 9.66194 72.7059 7.69978 74.2573C5.73763 75.8086 4.24597 77.8755 3.39179 80.2265ZM60.4738 83.2525H87.1118C86.7496 79.9733 85.1904 76.9429 82.7328 74.7418C80.2752 72.5407 77.092 71.3236 73.7928 71.3236C70.4936 71.3236 67.3104 72.5407 64.8528 74.7418C62.3952 76.9429 60.836 79.9733 60.4738 83.2525Z" fill="black"/>
<path d="M46.3228 45.0345H33.9558C33.3665 45.0434 32.7814 44.9349 32.2344 44.7155C31.6874 44.4961 31.1895 44.1702 30.7697 43.7566C30.3498 43.343 30.0164 42.8501 29.7889 42.3064C29.5613 41.7628 29.4441 41.1794 29.4441 40.59C29.4441 40.0007 29.5613 39.4172 29.7889 38.8736C30.0164 38.33 30.3498 37.837 30.7697 37.4234C31.1895 37.0099 31.6874 36.6839 32.2344 36.4645C32.7814 36.2451 33.3665 36.1367 33.9558 36.1455H42.6928L49.2288 30.2915C49.2628 30.2603 49.2985 30.2309 49.3358 30.2035C50.4929 29.3488 51.9418 28.9878 53.3646 29.1999C54.7875 29.4119 56.0681 30.1796 56.9258 31.3345C57.7824 32.4911 58.1447 33.9406 57.933 35.3642C57.7213 36.7879 56.9529 38.0692 55.7968 38.9265L47.1648 44.7765C46.9163 44.9448 46.6229 45.0347 46.3228 45.0345ZM33.9558 39.1435C33.7628 39.1384 33.5707 39.1721 33.3909 39.2424C33.211 39.3128 33.0471 39.4185 32.9088 39.5532C32.7705 39.6879 32.6606 39.849 32.5855 40.0269C32.5104 40.2048 32.4718 40.3959 32.4718 40.589C32.4718 40.7821 32.5104 40.9732 32.5855 41.1511C32.6606 41.3291 32.7705 41.4901 32.9088 41.6248C33.0471 41.7596 33.211 41.8652 33.3909 41.9356C33.5707 42.006 33.7628 42.0396 33.9558 42.0345H45.8638L54.0638 36.4785C54.5579 36.0985 54.8832 35.5398 54.9698 34.9225C55.04 34.4525 54.9708 33.9723 54.7706 33.5413C54.5704 33.1103 54.2481 32.7476 53.8437 32.4981C53.4393 32.2486 52.9705 32.1233 52.4955 32.1378C52.0206 32.1523 51.5603 32.3059 51.1718 32.5795L44.2638 38.7635C43.989 39.0098 43.6328 39.1455 43.2638 39.1445L33.9558 39.1435Z" fill="black"/>
<path d="M38.1798 45.0345H20.0648C19.667 45.0345 19.2854 44.8765 19.0041 44.5952C18.7228 44.3139 18.5648 43.9323 18.5648 43.5345V34.0935C18.5647 33.8568 18.6207 33.6235 18.7281 33.4126C18.8355 33.2016 18.9913 33.0191 19.1828 32.88C19.3742 32.7408 19.5959 32.6489 19.8297 32.6118C20.0634 32.5747 20.3027 32.5934 20.5278 32.6665L31.2468 36.1445H38.1788C38.5766 36.1445 38.9581 36.3025 39.2394 36.5838C39.5208 36.8652 39.6788 37.2467 39.6788 37.6445V43.5335C39.6789 43.7305 39.6402 43.9256 39.565 44.1076C39.4897 44.2896 39.3793 44.4551 39.2402 44.5945C39.101 44.7338 38.9357 44.8444 38.7537 44.9199C38.5718 44.9954 38.3768 45.0344 38.1798 45.0345ZM21.5658 42.0345H36.6818V39.1425H31.0098C30.8526 39.1426 30.6963 39.118 30.5468 39.0695L21.5648 36.1565L21.5658 42.0345Z" fill="black"/>
<path d="M15.1018 71.3855C14.9609 71.3858 14.8208 71.3656 14.6858 71.3255C14.3037 71.2153 13.9809 70.9579 13.7886 70.6099C13.5962 70.2619 13.5498 69.8517 13.6598 69.4695L21.2598 43.1185C21.376 42.7434 21.6347 42.4288 21.9803 42.2424C22.3259 42.0559 22.7308 42.0124 23.1082 42.1212C23.4855 42.23 23.8051 42.4824 23.9983 42.8243C24.1916 43.1661 24.2431 43.5701 24.1418 43.9495L16.5418 70.3025C16.4515 70.6146 16.2622 70.889 16.0025 71.0843C15.7428 71.2796 15.4267 71.3853 15.1018 71.3855Z" fill="black"/>
<path d="M33.3558 86.2505C33.0573 86.2502 32.7657 86.1609 32.5183 85.994C32.2708 85.8271 32.0788 85.5902 31.9668 85.3135C28.8428 77.608 27.2446 69.3692 27.2608 61.0545C27.2575 54.9875 28.102 48.9498 29.7698 43.1165C29.8792 42.7338 30.1361 42.4102 30.4841 42.217C30.8321 42.0237 31.2426 41.9766 31.6253 42.086C32.008 42.1954 32.3316 42.4524 32.5248 42.8003C32.7181 43.1483 32.7652 43.5588 32.6558 43.9415C31.0638 49.5063 30.258 55.2665 30.2618 61.0545C30.245 68.9828 31.7682 76.839 34.7468 84.1865C34.8392 84.4142 34.8742 84.661 34.8488 84.9054C34.8235 85.1497 34.7385 85.3842 34.6013 85.588C34.4641 85.7918 34.279 85.9588 34.0622 86.0743C33.8453 86.1899 33.6035 86.2504 33.3578 86.2505H33.3558Z" fill="black"/>
<path d="M49.7148 51.3125C49.4043 51.3129 49.1013 51.2169 48.8477 51.0377C48.5941 50.8586 48.4023 50.6052 48.2988 50.3125C47.4332 47.849 46.7886 45.3133 46.3728 42.7355C46.3101 42.3424 46.406 41.9406 46.6396 41.6183C46.8732 41.296 47.2252 41.0797 47.6183 41.017C48.0113 40.9543 48.4132 41.0502 48.7355 41.2838C49.0578 41.5174 49.2741 41.8694 49.3368 42.2625C49.7246 44.6622 50.3257 47.0225 51.1328 49.3155C51.2128 49.5419 51.2373 49.7842 51.2043 50.022C51.1712 50.2598 51.0816 50.4863 50.9428 50.6822C50.8041 50.8782 50.6203 51.038 50.4069 51.1482C50.1936 51.2584 49.9569 51.3158 49.7168 51.3155L49.7148 51.3125Z" fill="black"/>
<path d="M48.6408 26.2935C48.2392 26.2946 47.8531 26.1381 47.5657 25.8576C47.2783 25.5771 47.1124 25.195 47.1038 24.7935C47.0997 24.5986 47.1344 24.4048 47.2059 24.2234C47.2775 24.0421 47.3844 23.8768 47.5205 23.7372C47.6566 23.5975 47.8191 23.4864 47.9985 23.4102C48.178 23.3341 48.3708 23.2944 48.5658 23.2935H48.6408C49.5275 23.2981 50.4107 23.1814 51.2658 22.9465C53.0949 22.4567 54.7505 21.4648 56.0452 20.0829C57.3398 18.7011 58.2219 16.9844 58.5916 15.1273C58.9613 13.2701 58.8038 11.3466 58.137 9.57427C57.4702 7.80196 56.3206 6.25166 54.8185 5.09876C53.3163 3.94587 51.5214 3.23641 49.637 3.05065C47.7525 2.8649 45.8537 3.21027 44.1553 4.04768C42.457 4.88509 41.0269 6.18112 40.0268 7.78912C39.0268 9.39712 38.4968 11.2529 38.4968 13.1465C38.4968 13.3435 38.458 13.5385 38.3826 13.7205C38.3072 13.9025 38.1967 14.0679 38.0574 14.2072C37.9182 14.3464 37.7528 14.4569 37.5708 14.5323C37.3888 14.6077 37.1938 14.6465 36.9968 14.6465C36.7998 14.6465 36.6047 14.6077 36.4228 14.5323C36.2408 14.4569 36.0754 14.3464 35.9361 14.2072C35.7968 14.0679 35.6863 13.9025 35.611 13.7205C35.5356 13.5385 35.4968 13.3435 35.4968 13.1465C35.4967 10.6932 36.1831 8.28892 37.4783 6.20545C38.7735 4.12197 40.6259 2.4425 42.8259 1.35698C45.0259 0.271455 47.4858 -0.176799 49.9273 0.0629146C52.3688 0.302628 54.6946 1.22074 56.6414 2.71342C58.5883 4.20609 60.0787 6.21377 60.944 8.50936C61.8092 10.805 62.0149 13.2969 61.5377 15.7033C61.0604 18.1096 59.9194 20.3345 58.2435 22.1261C56.5677 23.9178 54.424 25.2048 52.0548 25.8415C50.9425 26.1459 49.794 26.298 48.6408 26.2935Z" fill="black"/>
<path d="M48.4638 26.3025C48.3828 26.3025 48.3178 26.3025 48.2688 26.2945C45.5946 26.2921 43.0305 25.2293 41.1388 23.3391C39.2471 21.4489 38.1823 18.8857 38.1778 16.2115C38.1714 14.9721 38.4025 13.7429 38.8588 12.5905C39.0065 12.2211 39.2949 11.9254 39.6606 11.7687C40.0263 11.6119 40.4393 11.6068 40.8088 11.7545C41.1782 11.9022 41.4739 12.1907 41.6306 12.5564C41.7874 12.9221 41.7925 13.3351 41.6448 13.7045C41.3307 14.5028 41.1722 15.3537 41.1778 16.2115C41.1794 18.0891 41.9257 19.8894 43.253 21.2175C44.5803 22.5455 46.3802 23.2929 48.2578 23.2955L48.4268 23.3015C48.8117 23.2639 49.1963 23.3764 49.5003 23.6156C49.8043 23.8548 50.0041 24.2022 50.058 24.5852C50.1119 24.9682 50.0159 25.3573 49.7898 25.6711C49.5637 25.985 49.2252 26.1993 48.8448 26.2695C48.719 26.292 48.5915 26.303 48.4638 26.3025Z" fill="black"/>
<path d="M51.6658 25.8925C51.268 25.8925 50.8864 25.7345 50.6051 25.4532C50.3238 25.1719 50.1658 24.7903 50.1658 24.3925V15.0645C50.1653 14.9543 50.1213 14.8488 50.0434 14.7709C49.9655 14.693 49.86 14.649 49.7498 14.6485H36.9948C36.597 14.6485 36.2154 14.4905 35.9341 14.2092C35.6528 13.9279 35.4948 13.5463 35.4948 13.1485C35.4948 12.7507 35.6528 12.3691 35.9341 12.0878C36.2154 11.8065 36.597 11.6485 36.9948 11.6485H49.7528C50.658 11.6501 51.5256 12.0106 52.1654 12.651C52.8052 13.2913 53.165 14.1593 53.1658 15.0645V24.3925C53.1658 24.7903 53.0078 25.1719 52.7264 25.4532C52.4451 25.7345 52.0636 25.8925 51.6658 25.8925Z" fill="black"/>
<path d="M47.2818 35.5455H47.2348C46.8372 35.5332 46.4609 35.3636 46.1884 35.0739C45.9159 34.7841 45.7697 34.398 45.7818 34.0005C45.891 30.7751 46.3358 27.5698 47.1088 24.4365C47.1522 24.2414 47.2341 24.0569 47.3498 23.8939C47.4655 23.7309 47.6126 23.5927 47.7824 23.4874C47.9523 23.382 48.1415 23.3117 48.3389 23.2805C48.5364 23.2493 48.738 23.2579 48.9321 23.3057C49.1262 23.3536 49.3087 23.4397 49.469 23.5591C49.6293 23.6785 49.7641 23.8288 49.8656 24.001C49.967 24.1732 50.033 24.364 50.0596 24.5621C50.0863 24.7602 50.0731 24.9616 50.0208 25.1545C49.298 28.0809 48.8827 31.0748 48.7818 34.0875C48.7708 34.478 48.608 34.8488 48.3279 35.1211C48.0477 35.3934 47.6724 35.5457 47.2818 35.5455Z" fill="black"/>
<path d="M67.1628 50.9855C66.765 50.9855 66.3834 50.8275 66.1021 50.5462C65.8208 50.2649 65.6628 49.8833 65.6628 49.4855C65.6907 39.6533 61.8376 30.2072 54.9408 23.1995C54.7969 23.0602 54.6823 22.8935 54.6038 22.7093C54.5254 22.525 54.4846 22.3269 54.4839 22.1266C54.4832 21.9264 54.5227 21.728 54.5999 21.5432C54.6771 21.3584 54.7906 21.191 54.9335 21.0507C55.0765 20.9105 55.2461 20.8003 55.4324 20.7267C55.6186 20.653 55.8177 20.6174 56.018 20.622C56.2182 20.6265 56.4155 20.6711 56.5982 20.7531C56.7809 20.8351 56.9453 20.9529 57.0818 21.0995C64.5309 28.6663 68.6928 38.8673 68.6628 49.4855C68.6628 49.8833 68.5048 50.2649 68.2234 50.5462C67.9421 50.8275 67.5606 50.9855 67.1628 50.9855Z" fill="black"/>
<path d="M79.6368 57.2485H66.1888C65.791 57.2485 65.4094 57.0905 65.1281 56.8092C64.8468 56.5279 64.6888 56.1463 64.6888 55.7485C64.6888 55.3507 64.8468 54.9692 65.1281 54.6878C65.4094 54.4065 65.791 54.2485 66.1888 54.2485H79.6368C80.0346 54.2485 80.4161 54.4065 80.6974 54.6878C80.9787 54.9692 81.1368 55.3507 81.1368 55.7485C81.1368 56.1463 80.9787 56.5279 80.6974 56.8092C80.4161 57.0905 80.0346 57.2485 79.6368 57.2485Z" fill="black"/>
<path d="M86.7798 65.6385H51.6688C51.271 65.6385 50.8894 65.4805 50.6081 65.1992C50.3268 64.9179 50.1688 64.5363 50.1688 64.1385V60.5945C50.1688 60.1967 50.3268 59.8152 50.6081 59.5339C50.8894 59.2526 51.271 59.0945 51.6688 59.0945C52.0666 59.0945 52.4481 59.2526 52.7294 59.5339C53.0107 59.8152 53.1688 60.1967 53.1688 60.5945V62.6385H86.7798C86.8894 62.6372 86.9941 62.5933 87.0718 62.516C87.1495 62.4386 87.194 62.3341 87.1958 62.2245V57.1465C87.1958 56.7487 87.3538 56.3672 87.6351 56.0859C87.9164 55.8045 88.298 55.6465 88.6958 55.6465C89.0936 55.6465 89.4751 55.8045 89.7564 56.0859C90.0378 56.3672 90.1958 56.7487 90.1958 57.1465V62.2245C90.1942 63.1298 89.8337 63.9976 89.1934 64.6375C88.553 65.2775 87.6851 65.6375 86.7798 65.6385Z" fill="black"/>
<path d="M86.3978 57.3285C94.8273 57.3285 101.661 50.495 101.661 42.0655C101.661 33.636 94.8273 26.8025 86.3978 26.8025C77.9683 26.8025 71.1348 33.636 71.1348 42.0655C71.1348 50.495 77.9683 57.3285 86.3978 57.3285Z" fill="#FFEBAF"/>
<path d="M86.3968 58.8235C83.0815 58.8233 79.8407 57.84 77.0843 55.9979C74.3278 54.1558 72.1796 51.5377 70.9111 48.4747C69.6427 45.4116 69.3111 42.0412 69.9582 38.7897C70.6053 35.5382 72.2021 32.5516 74.5467 30.2076C76.8912 27.8636 79.8782 26.2675 83.1299 25.6211C86.3816 24.9748 89.7519 25.3072 92.8146 26.5764C95.8774 27.8456 98.495 29.9945 100.336 32.7513C102.178 35.5082 103.16 38.7492 103.16 42.0645C103.154 46.5083 101.386 50.7684 98.2436 53.9102C95.1011 57.052 90.8405 58.819 86.3968 58.8235ZM86.3968 28.2985C83.6748 28.2985 81.014 29.1056 78.7508 30.6178C76.4875 32.1299 74.7235 34.2793 73.6817 36.7939C72.6399 39.3086 72.3672 42.0758 72.898 44.7454C73.4288 47.4151 74.7393 49.8674 76.6638 51.7924C78.5883 53.7173 81.0404 55.0283 83.7099 55.5597C86.3795 56.0911 89.1467 55.819 91.6616 54.7777C94.1765 53.7365 96.3262 51.9729 97.8388 49.71C99.3515 47.4471 100.159 44.7864 100.16 42.0645C100.156 38.4156 98.7042 34.9174 96.124 32.3373C93.5439 29.7571 90.0457 28.3057 86.3968 28.3015V28.2985Z" fill="black"/>
<path d="M86.3978 29.8235C86 29.8235 85.6184 29.6655 85.3371 29.3842C85.0558 29.1029 84.8978 28.7213 84.8978 28.3235V26.8015C84.8978 26.4037 85.0558 26.0222 85.3371 25.7409C85.6184 25.4595 86 25.3015 86.3978 25.3015C86.7956 25.3015 87.1771 25.4595 87.4585 25.7409C87.7398 26.0222 87.8978 26.4037 87.8978 26.8015V28.3235C87.8978 28.7213 87.7398 29.1029 87.4585 29.3842C87.1771 29.6655 86.7956 29.8235 86.3978 29.8235Z" fill="black"/>
<path d="M86.3978 58.8265C86 58.8265 85.6184 58.6685 85.3371 58.3872C85.0558 58.1059 84.8978 57.7243 84.8978 57.3265V55.8005C84.8978 55.4027 85.0558 55.0212 85.3371 54.7398C85.6184 54.4585 86 54.3005 86.3978 54.3005C86.7956 54.3005 87.1771 54.4585 87.4585 54.7398C87.7398 55.0212 87.8978 55.4027 87.8978 55.8005V57.3265C87.8978 57.7243 87.7398 58.1059 87.4585 58.3872C87.1771 58.6685 86.7956 58.8265 86.3978 58.8265Z" fill="black"/>
<path d="M72.6608 43.5645H71.1348C70.737 43.5645 70.3554 43.4065 70.0741 43.1252C69.7928 42.8439 69.6348 42.4623 69.6348 42.0645C69.6348 41.6667 69.7928 41.2852 70.0741 41.0039C70.3554 40.7226 70.737 40.5645 71.1348 40.5645H72.6608C73.0586 40.5645 73.4401 40.7226 73.7214 41.0039C74.0028 41.2852 74.1608 41.6667 74.1608 42.0645C74.1608 42.4623 74.0028 42.8439 73.7214 43.1252C73.4401 43.4065 73.0586 43.5645 72.6608 43.5645Z" fill="black"/>
<path d="M92.3618 43.5645H86.3978C86 43.5645 85.6184 43.4065 85.3371 43.1252C85.0558 42.8438 84.8978 42.4623 84.8978 42.0645V32.9275C84.8978 32.5297 85.0558 32.1481 85.3371 31.8668C85.6184 31.5855 86 31.4275 86.3978 31.4275C86.7956 31.4275 87.1771 31.5855 87.4585 31.8668C87.7398 32.1481 87.8978 32.5297 87.8978 32.9275V40.5645H92.3618C92.7596 40.5645 93.1411 40.7225 93.4224 41.0038C93.7038 41.2851 93.8618 41.6667 93.8618 42.0645C93.8618 42.4623 93.7038 42.8438 93.4224 43.1252C93.1411 43.4065 92.7596 43.5645 92.3618 43.5645Z" fill="black"/>
<path d="M101.66 43.5645H100.13C99.732 43.5645 99.3504 43.4065 99.0691 43.1252C98.7878 42.8439 98.6298 42.4623 98.6298 42.0645C98.6298 41.6667 98.7878 41.2852 99.0691 41.0039C99.3504 40.7226 99.732 40.5645 100.13 40.5645H101.66C102.058 40.5645 102.439 40.7226 102.72 41.0039C103.002 41.2852 103.16 41.6667 103.16 42.0645C103.16 42.4623 103.002 42.8439 102.72 43.1252C102.439 43.4065 102.058 43.5645 101.66 43.5645Z" fill="black"/>
<path d="M102.751 65.3855H94.2158C93.818 65.3855 93.4364 65.2275 93.1551 64.9462C92.8738 64.6649 92.7158 64.2833 92.7158 63.8855C92.7158 63.4877 92.8738 63.1061 93.1551 62.8248C93.4364 62.5435 93.818 62.3855 94.2158 62.3855H102.751C103.149 62.3855 103.53 62.5435 103.811 62.8248C104.093 63.1061 104.251 63.4877 104.251 63.8855C104.251 64.2833 104.093 64.6649 103.811 64.9462C103.53 65.2275 103.149 65.3855 102.751 65.3855Z" fill="black"/>
<path d="M100.835 71.3335H94.2158C93.818 71.3335 93.4364 71.1755 93.1551 70.8942C92.8738 70.6129 92.7158 70.2313 92.7158 69.8335C92.7158 69.4357 92.8738 69.0541 93.1551 68.7728C93.4364 68.4915 93.818 68.3335 94.2158 68.3335H100.835C101.233 68.3335 101.614 68.4915 101.895 68.7728C102.177 69.0541 102.335 69.4357 102.335 69.8335C102.335 70.2313 102.177 70.6129 101.895 70.8942C101.614 71.1755 101.233 71.3335 100.835 71.3335Z" fill="black"/>
<path d="M98.9198 77.2805H94.2198C93.822 77.2805 93.4404 77.1225 93.1591 76.8412C92.8778 76.5599 92.7198 76.1783 92.7198 75.7805C92.7198 75.3827 92.8778 75.0012 93.1591 74.7199C93.4404 74.4386 93.822 74.2805 94.2198 74.2805H98.9198C99.3176 74.2805 99.6991 74.4386 99.9804 74.7199C100.262 75.0012 100.42 75.3827 100.42 75.7805C100.42 76.1783 100.262 76.5599 99.9804 76.8412C99.6991 77.1225 99.3176 77.2805 98.9198 77.2805Z" fill="black"/>
<path d="M31.0098 45.0335C30.612 45.0335 30.2304 44.8755 29.9491 44.5942C29.6678 44.3129 29.5098 43.9313 29.5098 43.5335V37.6445C29.5098 37.2467 29.6678 36.8651 29.9491 36.5838C30.2304 36.3025 30.612 36.1445 31.0098 36.1445C31.4076 36.1445 31.7891 36.3025 32.0704 36.5838C32.3518 36.8651 32.5098 37.2467 32.5098 37.6445V43.5335C32.5098 43.9313 32.3518 44.3129 32.0704 44.5942C31.7891 44.8755 31.4076 45.0335 31.0098 45.0335Z" fill="black"/>
<path d="M60.2878 79.7915H31.1408C30.743 79.7915 30.3614 79.6335 30.0801 79.3522C29.7988 79.0709 29.6408 78.6893 29.6408 78.2915C29.6408 77.8937 29.7988 77.5121 30.0801 77.2308C30.3614 76.9495 30.743 76.7915 31.1408 76.7915H60.2878C60.6856 76.7915 61.0671 76.9495 61.3484 77.2308C61.6298 77.5121 61.7878 77.8937 61.7878 78.2915C61.7878 78.6893 61.6298 79.0709 61.3484 79.3522C61.0671 79.6335 60.6856 79.7915 60.2878 79.7915Z" fill="black"/>
</svg>
