<svg width="75" height="97" viewBox="0 0 75 97" fill="none" xmlns="http://www.w3.org/2000/svg">
<path d="M39.1663 96.9957H7.48234C5.49829 96.9931 3.59624 96.1484 2.1935 94.647C0.790766 93.1456 0.00190413 91.1101 0 88.9871V8.46474C0.00299312 6.34271 0.792409 4.30857 2.19509 2.80847C3.59777 1.30838 5.49919 0.464805 7.48234 0.462769H39.1663C41.1504 0.464806 43.0526 1.30892 44.4558 2.8099C45.8589 4.31088 46.6483 6.34614 46.6507 8.46914V26.4563C46.6507 26.8938 46.4883 27.3135 46.1991 27.6229C45.9099 27.9323 45.5178 28.1061 45.1088 28.1061C44.6999 28.1061 44.3077 27.9323 44.0185 27.6229C43.7294 27.3135 43.5669 26.8938 43.5669 26.4563V8.46474C43.5653 7.21605 43.1008 6.01903 42.2755 5.13628C41.4501 4.25352 40.3312 3.75711 39.1643 3.75595H7.48234C6.31584 3.75741 5.19754 4.25405 4.37289 5.13687C3.54824 6.01968 3.08462 7.21654 3.0838 8.46474V88.9871C3.08462 90.2353 3.54824 91.4322 4.37289 92.315C5.19754 93.1978 6.31584 93.6945 7.48234 93.6959H39.1663C40.3333 93.6948 41.4522 93.1984 42.2775 92.3156C43.1029 91.4329 43.5673 90.2358 43.569 88.9871V84.6072C43.569 84.1696 43.7314 83.75 44.0206 83.4406C44.3097 83.1312 44.7019 82.9573 45.1109 82.9573C45.5198 82.9573 45.912 83.1312 46.2012 83.4406C46.4903 83.75 46.6528 84.1696 46.6528 84.6072V88.9882C46.6503 91.1117 45.8607 93.1474 44.4572 94.6486C43.0536 96.1499 41.1508 96.994 39.1663 96.9957V96.9957Z" fill="black"/>
<path d="M28.8582 90.3355H17.7915C17.3826 90.3355 16.9904 90.1617 16.7012 89.8522C16.4121 89.5428 16.2496 89.1232 16.2496 88.6856C16.2496 88.248 16.4121 87.8284 16.7012 87.5189C16.9904 87.2095 17.3826 87.0357 17.7915 87.0357H28.8582C29.2672 87.0357 29.6594 87.2095 29.9485 87.5189C30.2377 87.8284 30.4001 88.248 30.4001 88.6856C30.4001 89.1232 30.2377 89.5428 29.9485 89.8522C29.6594 90.1617 29.2672 90.3355 28.8582 90.3355V90.3355Z" fill="black"/>
<path d="M10.9013 2.11145H35.7474V5.59712C35.7474 6.01399 35.6707 6.42677 35.5216 6.81191C35.3725 7.19704 35.154 7.54698 34.8785 7.84175C34.6031 8.13652 34.276 8.37035 33.9161 8.52988C33.5562 8.6894 33.1704 8.77151 32.7808 8.77151H13.8668C13.4771 8.77166 13.0912 8.68966 12.7311 8.53021C12.371 8.37076 12.0438 8.13698 11.7681 7.84221C11.4924 7.54744 11.2737 7.19746 11.1245 6.81224C10.9752 6.42703 10.8983 6.01413 10.8982 5.59712V2.11145H10.9013Z" fill="#FFEBAF"/>
<path d="M32.7808 10.4148H13.8668C12.6716 10.4136 11.5257 9.90491 10.6808 9.00037C9.83583 8.09583 9.36093 6.86943 9.36038 5.59051V2.11144C9.36038 1.67386 9.52284 1.2542 9.812 0.94479C10.1012 0.635375 10.4933 0.461548 10.9023 0.461548H35.7485C36.1574 0.461548 36.5496 0.635375 36.8388 0.94479C37.1279 1.2542 37.2904 1.67386 37.2904 2.11144V5.59711C37.2877 6.87528 36.8114 8.10015 35.9661 9.00323C35.1208 9.90631 33.9753 10.4139 32.7808 10.4148V10.4148ZM12.4432 3.75583V5.59161C12.4434 5.99605 12.5936 6.38387 12.8606 6.67005C13.1277 6.95624 13.4899 7.11744 13.8679 7.11831H32.7819C33.1598 7.11744 33.522 6.95624 33.7891 6.67005C34.0562 6.38387 34.2063 5.99605 34.2066 5.59161V3.75583H12.4432Z" fill="black"/>
<path d="M60.5391 92.9754C61.9573 94.4912 63.8798 95.3426 65.8843 95.3426C67.8889 95.3426 69.8114 94.4912 71.2296 92.9754C71.9321 92.2239 72.4894 91.3317 72.8696 90.3497C73.2498 89.3678 73.4455 88.3153 73.4455 87.2524C73.4455 86.1895 73.2498 85.1371 72.8696 84.1551C72.4894 83.1731 71.9321 82.281 71.2296 81.5295L51.5694 60.4868C50.2505 59.0924 49.2418 57.3983 48.6179 55.53C47.994 53.6618 47.771 51.6673 47.9654 49.6943C48.3457 46.0945 47.845 42.4507 46.5123 39.1205C45.1796 35.7902 43.0608 32.8878 40.3637 30.698C37.6666 28.5083 34.4838 27.1063 31.1276 26.6297C27.7715 26.1531 24.3571 26.6183 21.2196 27.9795L31.0127 38.4585L27.123 45.7885L20.2883 49.9363L10.4952 39.4573C9.22266 42.817 8.78833 46.473 9.23479 50.0666C9.68125 53.6601 10.9932 57.0677 13.0418 59.955C15.0904 62.8423 17.8054 65.1101 20.9203 66.5358C24.0352 67.9615 27.4429 68.4961 30.8092 68.0873C32.6513 67.8804 34.5133 68.1198 36.2571 68.7878C38.001 69.4557 39.582 70.5351 40.883 71.9458L60.5391 92.9754Z" fill="#FFEBAF"/>
<path d="M65.8875 96.9956C64.6909 96.9989 63.5055 96.7478 62.4003 96.2569C61.2952 95.766 60.2921 95.0449 59.4495 94.1357L39.8016 73.1128C38.6673 71.8723 37.2849 70.923 35.7583 70.3364C34.2318 69.7499 32.6009 69.5412 30.9881 69.7262C27.3559 70.1671 23.6789 69.5902 20.318 68.0519C16.957 66.5136 14.0275 64.0668 11.8168 60.9516C9.60613 57.8364 8.19024 54.1597 7.70806 50.2824C7.22588 46.405 7.69397 42.4601 9.0664 38.8347C9.16225 38.5824 9.31498 38.3594 9.51096 38.1856C9.70693 38.0119 9.94007 37.8927 10.1896 37.8388C10.439 37.7849 10.6971 37.7979 10.9408 37.8767C11.1844 37.9554 11.406 38.0975 11.5859 38.2902L20.5484 47.8827L25.9965 44.5829L29.0998 38.7423L20.1352 29.152C19.9552 28.9592 19.8227 28.7217 19.7494 28.4607C19.6762 28.1997 19.6645 27.9234 19.7154 27.6563C19.7663 27.3893 19.8782 27.14 20.0412 26.9305C20.2041 26.7211 20.413 26.5581 20.6492 26.4561C24.0343 24.9875 27.7181 24.4856 31.3392 24.9998C34.9603 25.514 38.3942 27.0266 41.3043 29.3892C44.2143 31.7517 46.5003 34.8832 47.9383 38.4762C49.3762 42.0693 49.9166 46.0006 49.5063 49.8846C49.3333 51.6116 49.5277 53.3581 50.0751 54.9932C50.6226 56.6284 51.5087 58.1098 52.6672 59.3263L72.3326 80.3669C73.6061 81.7293 74.4733 83.4651 74.8249 85.3549C75.1764 87.2447 74.9963 89.2036 74.3075 90.984C73.6186 92.7643 72.4519 94.2861 70.9548 95.3569C69.4577 96.4277 67.6975 96.9995 65.8967 97L65.8875 96.9956ZM32.162 66.3549C33.9894 66.3636 35.7972 66.759 37.4812 67.5183C39.1653 68.2775 40.6924 69.3856 41.9747 70.7788L61.6298 91.8083C62.777 92.9796 64.3018 93.6331 65.8875 93.6331C67.4732 93.6331 68.998 92.9796 70.1452 91.8083C71.2718 90.5985 71.9044 88.9603 71.9044 87.2524C71.9044 85.5445 71.2718 83.9063 70.1452 82.6965L50.4798 61.6549C48.9919 60.0894 47.8547 58.1835 47.1538 56.0803C46.4529 53.9772 46.2064 51.7314 46.4328 49.5117C46.7618 46.4115 46.3814 43.2722 45.3243 40.3643C44.2672 37.4564 42.5652 34.8672 40.3649 32.8198C38.1646 30.7723 35.532 29.3281 32.694 28.6116C29.856 27.895 26.8978 27.9276 24.0742 28.7066L32.0993 37.2948C32.3377 37.55 32.4913 37.8819 32.5366 38.2395C32.5819 38.5971 32.5164 38.9607 32.3501 39.2747L28.4584 46.6046C28.321 46.8636 28.1207 47.0779 27.8786 47.2249L21.0439 51.3728C20.7505 51.5507 20.4107 51.6208 20.0765 51.5723C19.7423 51.5239 19.4321 51.3595 19.1936 51.1044L11.1675 42.5085C10.4413 45.5327 10.413 48.7005 11.0849 51.7391C11.7568 54.7777 13.1089 57.596 15.0246 59.9513C16.9404 62.3067 19.3625 64.1285 22.0823 65.2599C24.8021 66.3913 27.7381 66.7984 30.6376 66.4462C31.1437 66.3849 31.6527 66.3545 32.162 66.3549V66.3549Z" fill="black"/>
</svg>
