<svg width="77" height="98" viewBox="0 0 77 98" fill="none" xmlns="http://www.w3.org/2000/svg">
<path d="M30.932 65.7658C30.7359 65.7659 30.5418 65.7298 30.3606 65.6596C30.1795 65.5894 30.0149 65.4864 29.8762 65.3565L14.2634 50.7279C14.0546 50.5323 13.9123 50.283 13.8546 50.0117C13.797 49.7403 13.8266 49.459 13.9396 49.2034C14.0526 48.9478 14.244 48.7293 14.4896 48.5756C14.7352 48.422 15.0239 48.34 15.3192 48.3401H23.4858C25.2556 48.3401 26.9529 47.6814 28.2043 46.5089C29.4558 45.3363 30.1588 43.746 30.1588 42.0878C30.1588 40.4295 29.4558 38.8392 28.2043 37.6667C26.9529 36.4941 25.2556 35.8354 23.4858 35.8354H15.3192C14.9234 35.8354 14.5437 35.688 14.2638 35.4258C13.9839 35.1635 13.8266 34.8078 13.8266 34.4369C13.8266 34.0659 13.9839 33.7102 14.2638 33.448C14.5437 33.1857 14.9234 33.0383 15.3192 33.0383H38.0299C38.4257 33.0383 38.8054 33.1857 39.0853 33.448C39.3652 33.7102 39.5225 34.0659 39.5225 34.4369C39.5225 34.8078 39.3652 35.1635 39.0853 35.4258C38.8054 35.688 38.4257 35.8354 38.0299 35.8354H30.4603C31.7696 37.1153 32.6485 38.7275 32.9878 40.4717C33.3271 42.2158 33.1118 44.0149 32.3686 45.6453C31.6255 47.2757 30.3873 48.6655 28.808 49.6419C27.2287 50.6184 25.3779 51.1383 23.4858 51.1372H18.9244L31.9877 63.3781C32.1966 63.5737 32.3389 63.8229 32.3965 64.0943C32.4542 64.3657 32.4246 64.647 32.3116 64.9026C32.1986 65.1582 32.0072 65.3767 31.7616 65.5303C31.516 65.684 31.2273 65.766 30.932 65.7658V65.7658Z" fill="black"/>
<path d="M38.0298 43.4854H15.3192C14.9233 43.4854 14.5436 43.338 14.2637 43.0757C13.9838 42.8135 13.8265 42.4577 13.8265 42.0868C13.8265 41.7159 13.9838 41.3602 14.2637 41.0979C14.5436 40.8356 14.9233 40.6883 15.3192 40.6883H38.0298C38.4256 40.6883 38.8053 40.8356 39.0852 41.0979C39.3651 41.3602 39.5224 41.7159 39.5224 42.0868C39.5224 42.4577 39.3651 42.8135 39.0852 43.0757C38.8053 43.338 38.4256 43.4854 38.0298 43.4854V43.4854Z" fill="black"/>
<path d="M44.9944 98.0001H8.35864C6.14284 97.9969 4.01878 97.1707 2.45197 95.7027C0.88516 94.2346 0.00342128 92.2444 0 90.1683V8.63485C0.00342128 6.55872 0.88516 4.56853 2.45197 3.10049C4.01878 1.63244 6.14284 0.806276 8.35864 0.80307H44.9944C47.2103 0.80603 49.3345 1.63211 50.9013 3.10021C52.4682 4.56832 53.3499 6.55864 53.353 8.63485V90.1608C53.352 92.2383 52.4712 94.2306 50.9042 95.7003C49.3371 97.17 47.2116 97.9971 44.9944 98.0001V98.0001ZM8.35864 3.60013C6.93433 3.6026 5.56911 4.13383 4.56197 5.07749C3.55483 6.02115 2.98786 7.30032 2.98523 8.63485V90.1608C2.98786 91.4954 3.55483 92.7745 4.56197 93.7182C5.56911 94.6619 6.93433 95.1931 8.35864 95.1956H44.9944C46.4187 95.1931 47.7839 94.6619 48.791 93.7182C49.7982 92.7745 50.3652 91.4954 50.3678 90.1608V8.63485C50.3652 7.30032 49.7982 6.02115 48.791 5.07749C47.7839 4.13383 46.4187 3.6026 44.9944 3.60013H8.35864Z" fill="black"/>
<path d="M33.0803 91.2573H20.2767C19.8808 91.2573 19.5012 91.11 19.2212 90.8477C18.9413 90.5854 18.7841 90.2297 18.7841 89.8588C18.7841 89.4879 18.9413 89.1322 19.2212 88.8699C19.5012 88.6076 19.8808 88.4603 20.2767 88.4603H33.0803C33.4762 88.4603 33.8558 88.6076 34.1358 88.8699C34.4157 89.1322 34.5729 89.4879 34.5729 89.8588C34.5729 90.2297 34.4157 90.5854 34.1358 90.8477C33.8558 91.11 33.4762 91.2573 33.0803 91.2573Z" fill="black"/>
<path d="M12.3121 2.20074H41.041V5.73064C41.0408 6.15268 40.952 6.57057 40.7795 6.96044C40.607 7.35032 40.3542 7.70454 40.0356 8.00288C39.717 8.30123 39.3388 8.53785 38.9226 8.69925C38.5064 8.86065 38.0604 8.94365 37.6099 8.94353H15.7431C14.8335 8.94353 13.9611 8.60509 13.3177 8.00261C12.6743 7.40013 12.3126 6.58292 12.3121 5.73064V2.20074Z" fill="#FFEBAF"/>
<path d="M37.6099 10.342H15.7431C14.4382 10.3408 13.1871 9.85456 12.2644 8.99002C11.3417 8.12547 10.8228 6.95326 10.8215 5.73061V2.20072C10.8215 1.8298 10.9787 1.47408 11.2586 1.21181C11.5386 0.94953 11.9182 0.802185 12.3141 0.802185H41.041C41.4368 0.802185 41.8165 0.94953 42.0964 1.21181C42.3763 1.47408 42.5336 1.8298 42.5336 2.20072V5.73061C42.532 6.9535 42.0127 8.12586 41.0896 8.9904C40.1665 9.85495 38.9151 10.341 37.6099 10.342V10.342ZM13.8047 3.59925V5.73061C13.8055 6.21208 14.01 6.67361 14.3733 7.01406C14.7367 7.35451 15.2293 7.5461 15.7431 7.54684H37.6099C38.1238 7.5461 38.6164 7.35451 38.9797 7.01406C39.3431 6.67361 39.5476 6.21208 39.5483 5.73061V3.59925H13.8047Z" fill="black"/>
<path d="M59.2727 92.544V48.5695C59.2727 48.071 59.4841 47.5929 59.8603 47.2404C60.2365 46.8879 60.7467 46.6899 61.2788 46.6899H73.5023C73.7657 46.6899 74.0266 46.7385 74.27 46.8329C74.5134 46.9274 74.7345 47.0659 74.9208 47.2404C75.1071 47.4149 75.2549 47.6221 75.3557 47.8502C75.4565 48.0782 75.5084 48.3227 75.5084 48.5695V92.544C75.5084 93.0768 75.3964 93.6044 75.1787 94.0966C74.9611 94.5888 74.6421 95.0361 74.2399 95.4128C73.8378 95.7895 73.3604 96.0883 72.835 96.2921C72.3096 96.4959 71.7465 96.6008 71.1778 96.6006H63.6023C62.454 96.6006 61.3528 96.1732 60.5408 95.4125C59.7289 94.6517 59.2727 93.6199 59.2727 92.544V92.544Z" fill="#FFEBAF"/>
<path d="M67.3896 97.9992C64.8417 97.9962 62.3991 97.0466 60.5974 95.3585C58.7958 93.6704 57.7823 91.3818 57.7791 88.9945V50.2086C57.7812 48.9037 58.3355 47.6529 59.3204 46.7304C60.3053 45.8079 61.6405 45.2891 63.0331 45.2876H71.746C73.1387 45.2888 74.474 45.8076 75.459 46.7302C76.444 47.6527 76.9982 48.9036 77 50.2086V88.9945C76.9969 91.3818 75.9833 93.6704 74.1817 95.3585C72.3801 97.0466 69.9374 97.9962 67.3896 97.9992ZM63.0331 48.0893C62.4319 48.0898 61.8554 48.3137 61.4301 48.7118C61.0048 49.11 60.7654 49.6499 60.7643 50.2132V88.9992C60.7643 90.6455 61.4624 92.2244 62.7048 93.3886C63.9473 94.5528 65.6324 95.2068 67.3896 95.2068C69.1467 95.2068 70.8318 94.5528 72.0743 93.3886C73.3168 92.2244 74.0148 90.6455 74.0148 88.9992V50.2132C74.0137 49.6499 73.7743 49.11 73.349 48.7118C72.9237 48.3137 72.3472 48.0898 71.746 48.0893H63.0331Z" fill="black"/>
<path d="M70.514 48.0894C70.1182 48.0894 69.7385 47.942 69.4586 47.6797C69.1787 47.4175 69.0214 47.0617 69.0214 46.6908V30.3523C69.021 30.1232 69.0807 29.8975 69.1953 29.6951C69.3098 29.4927 69.4756 29.3198 69.6782 29.1915L72.3291 27.5132L69.4632 17.7114H65.2978L62.2828 27.5291L64.9207 29.1952C65.1233 29.3235 65.2891 29.4964 65.4036 29.6988C65.5181 29.9012 65.5778 30.1269 65.5775 30.356V46.6908C65.5775 47.0617 65.4202 47.4175 65.1403 47.6797C64.8604 47.942 64.4807 48.0894 64.0848 48.0894C63.689 48.0894 63.3093 47.942 63.0294 47.6797C62.7495 47.4175 62.5922 47.0617 62.5922 46.6908V31.0953L59.7065 29.2754C59.4453 29.1097 59.2469 28.8708 59.1396 28.5929C59.0324 28.315 59.0218 28.0125 59.1095 27.7286L62.7415 15.9306C62.8312 15.6394 63.0194 15.3834 63.2779 15.2011C63.5363 15.0188 63.8509 14.9202 64.1744 14.9199H70.6036C70.9301 14.9199 71.2477 15.0201 71.5076 15.2054C71.7675 15.3906 71.9554 15.6506 72.0425 15.9455L75.4924 27.7435C75.575 28.0259 75.561 28.3254 75.4523 28.5999C75.3435 28.8744 75.1456 29.11 74.8864 29.2735L72.0057 31.0935V46.6908C72.0057 47.0616 71.8485 47.4172 71.5688 47.6794C71.2891 47.9417 70.9097 48.0891 70.514 48.0894V48.0894Z" fill="black"/>
<path d="M67.3895 89.9735C66.9937 89.9735 66.614 89.8262 66.3341 89.5639C66.0542 89.3016 65.8969 88.9459 65.8969 88.575V54.7165C65.8969 54.3456 66.0542 53.9899 66.3341 53.7276C66.614 53.4653 66.9937 53.318 67.3895 53.318C67.7854 53.318 68.1651 53.4653 68.445 53.7276C68.7249 53.9899 68.8822 54.3456 68.8822 54.7165V88.575C68.8822 88.9459 68.7249 89.3016 68.445 89.5639C68.1651 89.8262 67.7854 89.9735 67.3895 89.9735Z" fill="black"/>
</svg>
