<svg width="53" height="56" viewBox="0 0 53 56" fill="none" xmlns="http://www.w3.org/2000/svg">
<path d="M39.2172 32.1784C39.114 32.126 35.2501 30.1156 34.5636 29.8545C34.2832 29.7482 33.983 29.6444 33.6636 29.6444C33.1418 29.6444 32.7036 29.9191 32.3622 30.4587C31.9762 31.0649 30.8078 32.508 30.4468 32.9391C30.3996 32.996 30.3353 33.064 30.2967 33.064C30.2621 33.064 29.6642 32.8038 29.4831 32.7207C25.3383 30.8184 22.1922 26.2436 21.7608 25.4722C21.6992 25.3613 21.6966 25.3109 21.6961 25.3109C21.7112 25.2522 21.8506 25.1045 21.9225 25.0284C22.133 24.8084 22.361 24.5184 22.5816 24.2378C22.6861 24.1049 22.7907 23.9718 22.8934 23.8464C23.2135 23.4529 23.3559 23.1474 23.5211 22.7936L23.6077 22.6098C24.0111 21.7631 23.6665 21.0485 23.5552 20.8178C23.4638 20.6247 21.8324 16.4644 21.6589 16.0273C21.2418 14.9725 20.6906 14.4814 19.9247 14.4814C19.8536 14.4814 19.9247 14.4814 19.6267 14.4947C19.2638 14.5109 17.2875 14.7858 16.4136 15.3678C15.487 15.9851 13.9194 17.9527 13.9194 21.4131C13.9194 24.5274 15.7899 27.468 16.5929 28.5864C16.6129 28.6145 16.6496 28.6718 16.7027 28.754C19.7783 33.4998 23.6123 37.0169 27.4991 38.6574C31.2409 40.2367 33.0128 40.4193 34.0201 40.4193C34.0203 40.4193 34.0203 40.4193 34.0203 40.4193C34.4436 40.4193 34.7824 40.3842 35.0813 40.3531L35.271 40.334C36.5636 40.2129 39.4043 38.6576 40.0504 36.7604C40.5594 35.266 40.6937 33.6333 40.355 33.0407C40.123 32.6378 39.7233 32.4351 39.2172 32.1784Z" fill="#3E3E3E"/>
<path d="M26.9704 0C12.6164 0 0.938473 12.2462 0.938473 27.2987C0.938473 32.1673 2.17158 36.9329 4.50754 41.1038L0.0364406 55.0393C-0.0468452 55.2991 0.0151029 55.5864 0.196989 55.782C0.328285 55.9236 0.506386 56 0.688272 56C0.757964 56 0.828171 55.9889 0.896658 55.9658L14.6491 51.3484C18.4125 53.4729 22.6659 54.5944 26.9706 54.5944C41.3233 54.5946 53 42.3496 53 27.2987C53 12.2462 41.3233 0 26.9704 0ZM26.9704 48.908C22.9199 48.908 18.9967 47.6722 15.6243 45.334C15.5109 45.2553 15.3793 45.2149 15.2468 45.2149C15.1767 45.2149 15.1065 45.2262 15.0382 45.2491L8.14906 47.5629L10.373 40.6304C10.4449 40.406 10.409 40.1585 10.2765 39.9673C7.70837 36.2596 6.35084 31.8791 6.35084 27.2987C6.35084 15.3818 15.6007 5.68655 26.9703 5.68655C38.3384 5.68655 47.5873 15.3818 47.5873 27.2987C47.5874 39.2142 38.3388 48.908 26.9704 48.908Z" fill="#3E3E3E"/>
</svg>
